<svg id="svg" version="1.1" xmlns="http://www.w3.org/2000/svg" xmlns:xlink="http://www.w3.org/1999/xlink" width="400" height="396.48437500000006" viewBox="0, 0, 400,396.48437500000006"><g id="svgg"><path id="path0" d="M195.634 14.633 C 195.565 14.691,192.520 14.857,188.867 15.001 C 185.215 15.145,181.611 15.330,180.859 15.412 C 174.155 16.145,172.148 16.450,171.395 16.848 C 171.024 17.045,170.277 17.125,169.735 17.027 C 169.138 16.919,168.748 17.031,168.744 17.311 C 168.740 17.602,168.632 17.629,168.451 17.383 C 168.044 16.829,167.067 16.677,167.403 17.220 C 167.592 17.526,167.406 17.576,166.797 17.383 C 166.198 17.193,166.003 17.242,166.185 17.536 C 166.346 17.797,166.145 17.969,165.680 17.969 C 165.255 17.969,164.601 18.087,164.226 18.230 C 163.772 18.404,163.635 18.344,163.816 18.052 C 163.973 17.797,163.629 17.850,163.001 18.178 C 162.403 18.490,161.475 18.749,160.938 18.754 C 160.400 18.758,159.703 18.925,159.388 19.124 C 159.017 19.359,158.612 19.322,158.239 19.021 C 157.787 18.655,157.726 18.660,157.956 19.043 C 158.158 19.379,157.958 19.531,157.315 19.531 C 156.801 19.531,156.251 19.661,156.092 19.819 C 155.674 20.237,154.539 20.181,154.205 19.727 C 154.044 19.508,153.916 19.647,153.912 20.043 C 153.909 20.431,153.743 20.648,153.543 20.524 C 153.343 20.401,153.067 20.481,152.930 20.703 C 152.793 20.925,152.552 21.027,152.396 20.931 C 152.239 20.834,151.865 20.907,151.565 21.092 C 151.251 21.286,150.723 21.271,150.323 21.057 C 149.757 20.755,149.674 20.809,149.881 21.348 C 150.069 21.838,149.977 21.950,149.529 21.778 C 149.196 21.650,148.770 21.692,148.583 21.872 C 148.395 22.051,147.803 22.257,147.266 22.330 C 146.729 22.402,146.201 22.549,146.094 22.656 C 145.321 23.429,144.206 23.740,143.743 23.312 C 143.414 23.008,143.328 23.000,143.490 23.291 C 143.643 23.564,143.072 23.916,141.985 24.221 C 141.022 24.490,140.234 24.834,140.234 24.984 C 140.234 25.135,139.607 25.237,138.839 25.212 C 138.072 25.186,137.342 25.331,137.216 25.534 C 137.084 25.748,137.203 25.770,137.500 25.586 C 137.846 25.372,137.917 25.422,137.721 25.740 C 137.497 26.102,137.287 26.094,136.804 25.703 C 136.328 25.317,136.249 25.313,136.473 25.686 C 136.792 26.216,136.416 26.426,134.602 26.733 C 133.975 26.839,133.351 27.104,133.216 27.323 C 133.081 27.541,132.579 27.645,132.100 27.552 C 131.621 27.460,131.327 27.542,131.446 27.735 C 131.565 27.928,131.285 28.288,130.823 28.535 C 130.142 28.900,130.042 28.885,130.293 28.457 C 130.464 28.167,130.229 28.258,129.772 28.658 C 129.315 29.059,128.421 29.408,127.786 29.434 C 127.150 29.460,126.708 29.607,126.803 29.760 C 127.046 30.154,125.454 30.945,124.992 30.659 C 124.782 30.529,124.609 30.638,124.609 30.901 C 124.609 31.165,124.494 31.265,124.352 31.123 C 124.211 30.982,123.826 31.084,123.496 31.351 C 123.009 31.745,122.956 31.737,123.214 31.309 C 123.471 30.882,123.374 30.866,122.703 31.225 C 122.248 31.469,121.875 31.848,121.875 32.068 C 121.875 32.288,121.718 32.371,121.525 32.252 C 121.333 32.133,121.071 32.310,120.942 32.644 C 120.814 32.979,120.532 33.143,120.315 33.010 C 120.099 32.876,119.922 32.923,119.922 33.115 C 119.922 33.609,118.665 33.569,117.969 33.052 C 117.470 32.682,117.457 32.712,117.881 33.255 C 118.297 33.788,118.265 33.943,117.686 34.193 C 116.453 34.725,115.625 34.772,115.625 34.307 C 115.625 34.058,115.512 33.967,115.374 34.105 C 115.236 34.243,115.349 34.628,115.625 34.960 C 116.047 35.469,116.025 35.526,115.485 35.319 C 115.093 35.168,114.844 35.270,114.844 35.580 C 114.844 35.891,114.640 35.809,114.318 35.368 C 113.825 34.694,113.795 34.707,113.830 35.586 C 113.859 36.310,113.672 36.517,113.011 36.495 C 112.541 36.479,112.189 36.632,112.230 36.834 C 112.271 37.036,111.956 37.259,111.531 37.329 C 111.105 37.400,110.691 37.652,110.612 37.890 C 110.528 38.144,110.254 38.031,109.950 37.618 C 109.457 36.947,109.436 36.950,109.502 37.672 C 109.541 38.112,109.201 38.620,108.694 38.879 C 108.212 39.126,107.933 39.444,108.075 39.586 C 108.217 39.728,108.147 39.844,107.919 39.844 C 107.692 39.844,107.400 39.569,107.271 39.233 C 106.924 38.329,106.292 38.921,106.515 39.942 C 106.703 40.801,106.690 40.799,105.887 39.844 C 105.268 39.106,105.133 39.050,105.335 39.615 C 105.514 40.116,105.458 40.274,105.165 40.093 C 104.884 39.919,104.783 40.105,104.881 40.615 C 104.972 41.091,104.825 41.406,104.512 41.406 C 104.225 41.406,103.889 41.670,103.765 41.992 C 103.641 42.314,103.280 42.578,102.962 42.578 C 102.644 42.578,101.953 42.974,101.426 43.457 C 99.944 44.818,97.868 45.953,98.135 45.256 C 98.287 44.859,98.079 44.688,97.444 44.688 C 96.944 44.688,96.624 44.831,96.732 45.006 C 96.840 45.182,97.110 45.214,97.330 45.077 C 97.564 44.933,97.673 45.133,97.591 45.559 C 97.513 45.961,97.189 46.289,96.870 46.289 C 96.550 46.289,96.323 46.099,96.365 45.866 C 96.407 45.633,96.204 45.443,95.914 45.443 C 95.624 45.443,95.477 45.677,95.587 45.964 C 95.697 46.250,95.938 46.484,96.123 46.484 C 96.308 46.484,96.366 46.730,96.251 47.030 C 95.955 47.800,94.306 48.029,93.581 47.401 C 93.246 47.110,93.147 47.084,93.361 47.342 C 94.071 48.201,93.868 49.393,93.136 48.661 C 92.295 47.820,92.083 47.890,92.663 48.818 C 93.051 49.440,93.040 49.687,92.609 50.088 C 92.172 50.494,92.128 50.488,92.372 50.060 C 92.586 49.684,92.463 49.579,91.941 49.693 C 91.539 49.780,91.255 50.060,91.309 50.316 C 91.362 50.572,91.206 50.781,90.961 50.781 C 90.716 50.781,90.291 51.089,90.016 51.465 C 89.741 51.841,89.326 52.170,89.094 52.197 C 88.862 52.224,88.486 52.268,88.258 52.295 C 88.031 52.322,87.970 52.547,88.123 52.795 C 88.301 53.083,88.230 53.139,87.924 52.951 C 87.662 52.788,87.539 52.415,87.652 52.121 C 87.764 51.828,87.713 51.499,87.537 51.390 C 86.964 51.036,86.737 51.648,87.154 52.428 C 87.609 53.277,86.675 54.687,85.659 54.687 C 85.330 54.687,85.223 54.883,85.391 55.176 C 85.546 55.444,85.235 55.266,84.699 54.779 L 83.726 53.894 82.976 54.749 C 82.523 55.265,82.458 55.465,82.813 55.254 C 84.308 54.363,85.325 55.092,84.124 56.194 C 83.432 56.828,81.822 56.905,82.205 56.286 C 82.625 55.605,81.197 56.057,80.568 56.803 C 79.884 57.615,79.885 57.616,80.754 56.880 C 81.540 56.215,81.648 56.206,81.869 56.781 C 82.003 57.131,82.314 57.303,82.560 57.163 C 82.807 57.023,82.568 57.343,82.031 57.875 C 81.494 58.406,80.935 58.783,80.789 58.711 C 80.642 58.640,80.411 58.763,80.273 58.984 C 80.136 59.206,79.852 59.281,79.642 59.151 C 79.405 59.005,79.453 58.676,79.766 58.289 C 80.195 57.759,80.183 57.718,79.688 58.025 C 79.365 58.224,78.943 58.389,78.748 58.392 C 78.554 58.396,78.350 58.707,78.294 59.084 C 78.239 59.461,78.354 59.670,78.550 59.549 C 78.746 59.428,78.906 59.525,78.906 59.766 C 78.906 60.006,79.126 60.089,79.395 59.950 C 79.663 59.811,79.443 60.061,78.906 60.504 C 78.369 60.948,77.745 61.315,77.520 61.319 C 77.294 61.324,76.884 61.953,76.608 62.717 C 76.332 63.481,75.902 64.038,75.654 63.955 C 75.171 63.794,74.219 64.568,74.219 65.122 C 74.219 65.306,73.702 65.762,73.071 66.135 C 72.439 66.508,71.808 67.174,71.668 67.614 C 71.523 68.070,71.189 68.330,70.892 68.216 C 70.605 68.105,70.161 68.266,69.906 68.574 C 69.651 68.881,69.307 69.048,69.141 68.945 C 68.974 68.843,68.599 69.054,68.306 69.415 C 67.940 69.867,67.926 69.980,68.262 69.778 C 69.067 69.295,68.817 69.935,67.676 71.279 C 67.085 71.975,66.281 72.938,65.890 73.419 C 65.240 74.217,65.138 74.236,64.705 73.644 C 64.272 73.052,64.164 73.073,63.463 73.893 C 63.030 74.400,62.966 74.583,63.317 74.313 C 63.659 74.050,64.034 73.930,64.150 74.046 C 64.501 74.397,63.514 76.166,62.965 76.169 C 62.684 76.171,62.563 76.348,62.695 76.562 C 62.828 76.777,62.619 76.980,62.230 77.013 C 61.841 77.045,61.316 77.092,61.063 77.115 C 60.809 77.139,60.458 77.316,60.281 77.509 C 60.102 77.706,60.156 77.748,60.405 77.606 C 60.655 77.463,60.937 77.691,61.052 78.129 C 61.186 78.644,61.062 78.906,60.683 78.906 C 60.368 78.906,60.211 79.070,60.335 79.270 C 60.458 79.470,60.399 79.733,60.204 79.854 C 59.822 80.089,59.192 78.969,59.341 78.320 C 59.390 78.105,59.199 78.157,58.916 78.436 C 58.633 78.714,58.401 79.665,58.400 80.549 C 58.399 81.644,58.212 82.208,57.813 82.319 C 57.347 82.448,57.334 82.406,57.748 82.115 C 58.167 81.821,58.139 81.700,57.606 81.495 C 57.039 81.277,57.019 81.143,57.469 80.562 C 57.889 80.019,57.820 80.032,57.122 80.627 C 56.148 81.458,56.040 81.687,56.689 81.543 C 56.931 81.489,57.157 81.929,57.191 82.520 C 57.256 83.654,56.417 83.995,55.591 83.169 C 55.285 82.863,55.091 82.866,54.898 83.179 C 54.750 83.418,54.774 83.565,54.951 83.506 C 55.349 83.373,55.469 83.707,55.469 84.949 C 55.469 85.636,55.304 85.850,54.895 85.693 C 54.270 85.453,54.263 84.738,54.883 84.283 C 55.128 84.103,55.101 83.994,54.808 83.990 C 54.308 83.984,53.779 84.657,53.659 85.451 C 53.618 85.721,53.745 85.842,53.941 85.721 C 54.137 85.600,54.297 85.945,54.297 86.488 C 54.297 87.196,54.134 87.413,53.723 87.255 C 53.408 87.134,53.188 86.920,53.235 86.779 C 53.282 86.639,53.161 86.436,52.967 86.328 C 52.773 86.221,52.568 86.441,52.513 86.818 C 52.458 87.195,52.572 87.405,52.766 87.285 C 52.961 87.165,53.083 87.511,53.038 88.054 C 52.963 88.966,52.893 89.000,52.129 88.500 C 51.438 88.047,51.302 88.045,51.302 88.489 C 51.302 88.780,51.405 88.985,51.530 88.943 C 51.785 88.858,51.953 89.234,51.953 89.889 C 51.953 90.129,51.641 90.244,51.259 90.144 C 50.718 90.003,50.576 90.186,50.615 90.977 C 50.675 92.190,50.100 92.659,49.166 92.159 C 48.733 91.927,48.397 91.937,48.243 92.186 C 48.019 92.549,48.265 92.720,48.889 92.636 C 49.344 92.576,48.972 93.897,48.489 94.058 C 48.232 94.144,48.072 94.066,48.132 93.884 C 48.234 93.580,47.948 93.359,47.452 93.359 C 47.340 93.359,47.522 93.778,47.857 94.289 C 48.410 95.133,48.408 95.240,47.841 95.458 C 47.465 95.602,47.334 95.893,47.511 96.189 C 47.735 96.562,47.656 96.558,47.180 96.172 C 46.697 95.781,46.487 95.773,46.263 96.135 C 46.067 96.453,46.139 96.503,46.484 96.289 C 46.833 96.074,46.902 96.125,46.701 96.451 C 46.538 96.713,46.177 96.841,45.897 96.733 C 45.358 96.526,45.327 97.137,45.837 97.952 C 46.365 98.799,45.042 99.797,44.227 99.167 C 43.610 98.689,43.611 98.713,44.239 99.452 C 44.890 100.219,44.811 100.781,44.052 100.781 C 43.861 100.781,43.829 100.578,43.983 100.330 C 44.157 100.049,44.090 99.985,43.804 100.162 C 43.552 100.317,43.466 100.638,43.612 100.875 C 43.783 101.151,43.647 101.216,43.233 101.057 C 42.878 100.921,42.606 100.935,42.629 101.088 C 42.750 101.902,42.527 102.358,42.127 102.111 C 41.829 101.927,41.783 102.005,41.991 102.343 C 42.238 102.741,42.422 102.695,42.833 102.133 C 43.137 101.717,43.359 101.621,43.359 101.906 C 43.359 102.442,42.404 103.532,41.908 103.562 C 41.740 103.572,41.514 103.682,41.406 103.806 C 41.299 103.930,41.431 103.905,41.699 103.751 C 42.026 103.562,42.188 103.750,42.188 104.322 C 42.188 105.073,42.109 105.110,41.527 104.638 C 40.962 104.180,40.915 104.183,41.200 104.656 C 41.458 105.084,41.364 105.151,40.787 104.948 C 40.067 104.695,40.066 104.706,40.757 105.243 C 41.709 105.982,41.441 107.235,40.339 107.198 C 39.873 107.182,39.588 107.324,39.705 107.513 C 40.028 108.035,39.496 109.766,39.013 109.766 C 38.780 109.766,38.687 109.508,38.808 109.192 C 38.929 108.877,38.816 108.497,38.557 108.348 C 38.298 108.200,38.212 108.217,38.365 108.387 C 38.519 108.557,38.457 109.046,38.229 109.474 C 37.910 110.068,37.925 110.181,38.293 109.954 C 38.606 109.760,38.705 109.846,38.576 110.200 C 38.468 110.498,38.181 110.698,37.939 110.645 C 37.698 110.591,37.500 110.723,37.500 110.938 C 37.500 111.152,37.808 111.342,38.184 111.359 C 38.608 111.378,38.454 111.540,37.777 111.788 C 36.891 112.111,36.773 112.290,37.148 112.742 C 37.528 113.200,37.479 113.250,36.872 113.022 C 36.271 112.796,36.214 112.850,36.567 113.306 C 37.373 114.349,36.135 116.535,35.053 115.979 C 34.332 115.608,34.265 115.620,34.668 116.046 C 35.229 116.639,35.329 117.340,34.807 117.017 C 34.359 116.741,33.899 117.906,34.239 118.455 C 34.380 118.684,34.318 118.761,34.102 118.627 C 33.533 118.276,32.693 120.284,33.169 120.858 C 33.393 121.127,33.408 121.543,33.207 121.869 C 33.018 122.174,32.956 122.608,33.067 122.833 C 33.179 123.058,32.902 122.803,32.451 122.266 C 31.922 121.637,31.717 121.534,31.874 121.978 C 32.009 122.356,31.879 122.961,31.587 123.322 C 31.286 123.693,31.254 123.859,31.513 123.703 C 31.942 123.446,31.956 123.672,31.675 126.293 C 31.656 126.466,31.465 126.500,31.250 126.367 C 30.912 126.158,30.655 127.288,30.823 128.252 C 30.854 128.429,30.687 128.455,30.452 128.310 C 30.217 128.165,30.119 127.800,30.235 127.500 C 30.558 126.657,30.159 126.853,29.662 127.782 C 29.418 128.237,29.392 128.503,29.603 128.373 C 29.824 128.236,29.967 128.616,29.940 129.268 C 29.915 129.891,29.775 130.327,29.629 130.237 C 29.483 130.147,29.262 130.294,29.139 130.564 C 29.015 130.834,29.012 130.659,29.131 130.176 C 29.452 128.886,29.050 129.105,28.569 130.482 C 28.342 131.134,28.304 131.576,28.485 131.464 C 28.666 131.352,28.777 131.742,28.730 132.329 C 28.643 133.436,28.252 133.873,27.799 133.368 C 27.656 133.209,27.786 133.221,28.088 133.396 C 28.460 133.612,28.545 133.567,28.354 133.257 C 28.198 133.006,27.896 132.908,27.681 133.041 C 27.467 133.173,27.390 133.379,27.510 133.499 C 27.630 133.619,27.509 133.987,27.243 134.316 C 26.848 134.804,26.857 134.856,27.288 134.596 C 27.954 134.195,27.481 135.973,26.803 136.420 C 26.502 136.618,26.525 136.709,26.879 136.713 C 27.160 136.716,27.279 136.897,27.144 137.116 C 27.010 137.334,26.718 137.401,26.497 137.264 C 26.229 137.099,26.214 137.261,26.450 137.746 C 26.803 138.470,25.753 141.248,25.298 140.793 C 25.187 140.682,24.992 140.863,24.865 141.194 C 24.738 141.526,24.838 141.797,25.087 141.797 C 25.336 141.797,25.199 142.055,24.782 142.370 C 24.200 142.811,24.159 142.950,24.609 142.969 C 25.091 142.989,25.076 143.084,24.525 143.503 C 23.995 143.906,23.954 144.118,24.330 144.524 C 24.639 144.857,24.648 144.949,24.357 144.786 C 24.111 144.648,23.809 144.798,23.686 145.119 C 23.563 145.440,23.644 145.703,23.867 145.703 C 24.090 145.703,23.914 146.206,23.476 146.821 C 23.038 147.437,22.776 148.037,22.895 148.155 C 23.013 148.274,22.914 148.737,22.674 149.185 C 22.338 149.814,22.353 150.003,22.740 150.012 C 23.039 150.020,22.936 150.257,22.484 150.598 C 21.940 151.010,21.885 151.174,22.289 151.178 C 22.752 151.183,22.758 151.243,22.323 151.519 C 22.032 151.703,21.716 152.706,21.619 153.748 C 21.523 154.790,21.321 155.736,21.171 155.849 C 21.021 155.962,20.843 156.494,20.775 157.031 C 20.650 158.026,20.440 159.191,20.071 160.938 C 19.958 161.475,19.840 162.222,19.810 162.598 C 19.780 162.974,19.640 163.281,19.499 163.281 C 19.358 163.281,19.305 163.809,19.380 164.453 C 19.455 165.098,19.388 165.625,19.231 165.625 C 19.074 165.625,18.925 166.284,18.900 167.090 C 18.875 167.896,18.749 169.170,18.619 169.922 C 18.063 173.155,17.802 175.716,17.634 179.613 C 17.601 180.370,17.415 180.805,17.185 180.662 C 16.945 180.514,16.961 180.791,17.225 181.371 C 17.541 182.066,17.542 182.541,17.228 183.128 C 16.706 184.102,16.676 184.496,17.146 184.205 C 17.347 184.081,17.363 184.573,17.183 185.370 C 16.849 186.852,16.999 201.048,17.409 206.836 C 17.831 212.781,17.854 213.040,18.113 214.648 C 18.251 215.508,18.440 217.002,18.532 217.969 C 19.378 226.821,23.606 243.878,27.926 255.859 C 30.436 262.820,35.989 274.887,37.589 276.855 C 37.808 277.124,37.893 277.344,37.779 277.344 C 37.546 277.344,40.406 282.286,43.204 286.719 C 72.804 333.601,116.610 364.069,168.164 373.631 C 206.281 380.700,243.941 375.347,279.492 357.807 C 286.593 354.303,288.049 353.527,293.359 350.414 C 298.373 347.475,310.401 338.987,314.091 335.782 C 314.859 335.116,316.440 333.779,317.606 332.813 C 331.545 321.249,346.807 303.498,356.300 287.807 C 402.606 211.277,382.425 109.480,309.730 52.889 C 290.834 38.179,268.622 27.046,246.289 21.090 C 244.570 20.631,242.988 20.209,242.773 20.150 C 239.336 19.216,234.670 18.253,229.450 17.401 C 221.619 16.121,219.225 15.796,215.039 15.442 C 213.750 15.333,211.729 15.151,210.547 15.037 C 208.112 14.803,195.827 14.470,195.634 14.633 M172.774 21.692 C 174.492 22.008,174.936 22.115,175.098 22.249 C 175.518 22.600,179.173 22.760,192.969 23.032 C 228.243 23.726,251.428 29.102,277.148 42.549 C 337.429 74.065,371.614 129.899,371.636 196.875 C 371.646 229.625,364.205 255.884,345.744 288.249 C 341.386 295.889,340.545 297.985,341.332 299.245 C 345.197 305.434,315.427 334.313,290.820 348.245 C 289.746 348.853,288.604 349.572,288.281 349.842 C 287.959 350.112,284.795 351.824,281.250 353.646 C 268.045 360.432,257.031 363.651,257.031 360.723 C 257.031 359.027,256.537 359.068,242.383 361.941 C 205.337 369.461,169.069 366.290,135.430 352.590 C 76.715 328.679,36.972 275.453,28.640 209.570 C 28.068 205.048,27.947 200.955,27.939 185.910 C 27.930 167.448,27.763 165.336,26.423 166.676 C 26.295 166.804,26.082 166.576,25.950 166.169 C 25.818 165.762,25.539 165.068,25.330 164.627 C 25.121 164.185,24.998 163.658,25.058 163.455 C 25.117 163.252,24.947 162.690,24.679 162.207 C 24.401 161.706,24.356 161.328,24.573 161.328 C 24.783 161.328,24.873 160.933,24.773 160.449 C 24.355 158.437,26.937 147.032,29.734 138.532 C 34.582 123.802,42.338 107.784,50.245 96.173 C 52.044 93.531,53.516 91.284,53.516 91.180 C 53.516 90.172,65.838 75.620,71.680 69.728 C 79.975 61.361,102.031 44.141,104.452 44.141 C 104.540 44.141,106.782 42.906,109.435 41.396 C 126.835 31.495,153.077 22.058,165.284 21.310 C 166.278 21.249,167.300 21.070,167.555 20.913 C 167.811 20.755,168.623 20.739,169.361 20.877 C 170.320 21.057,170.716 20.985,170.748 20.623 C 170.773 20.345,170.870 20.404,170.963 20.754 C 171.067 21.144,171.768 21.508,172.774 21.692 M191.406 48.858 C 152.876 51.498,112.870 70.166,96.041 93.359 C 94.716 95.186,92.544 97.822,91.215 99.219 C 88.299 102.282,86.629 104.837,86.793 105.986 C 86.999 107.434,89.985 108.695,92.578 108.429 C 98.909 107.780,120.161 106.205,122.852 106.185 C 129.843 106.135,132.826 109.395,132.804 117.068 C 132.787 122.987,130.227 125.695,124.023 126.355 C 112.331 127.598,112.748 127.400,113.964 131.119 C 114.444 132.588,115.291 135.697,115.848 138.030 C 116.955 142.671,121.707 156.980,133.188 190.234 C 137.304 202.158,143.105 219.121,146.078 227.930 C 149.051 236.738,152.308 246.230,153.315 249.023 C 154.322 251.816,156.435 257.881,158.012 262.500 C 163.773 279.384,162.577 280.450,172.470 249.609 C 173.401 246.709,178.218 231.730,183.175 216.322 C 188.760 198.963,192.188 187.714,192.188 186.745 C 192.188 184.790,190.869 180.951,182.247 157.813 C 171.569 129.153,171.303 128.757,161.133 126.359 C 148.613 123.408,144.570 118.518,148.417 110.978 C 150.925 106.061,153.005 105.586,168.066 106.495 C 184.349 107.477,209.132 107.476,224.108 106.493 C 242.874 105.261,245.517 106.269,246.013 114.844 C 246.448 122.346,243.693 124.820,233.420 126.156 C 226.628 127.040,226.353 127.211,227.703 129.732 C 228.116 130.502,228.724 132.700,229.055 134.618 C 230.132 140.858,233.410 150.870,247.453 190.820 C 248.888 194.902,253.580 208.262,257.881 220.508 C 262.182 232.754,266.841 245.762,268.235 249.414 C 269.629 253.066,271.654 258.604,272.736 261.719 C 276.671 273.055,276.905 273.141,279.940 264.358 C 281.209 260.687,290.006 230.439,294.569 214.063 C 303.183 183.141,300.865 166.303,284.539 141.211 C 274.344 125.542,271.884 119.900,271.256 110.742 C 270.485 99.513,277.396 87.236,287.132 82.538 C 292.571 79.913,292.608 79.282,287.533 75.631 C 260.419 56.129,225.845 46.499,191.406 48.858 M84.926 53.214 C 84.396 53.835,84.368 53.943,84.832 53.585 C 85.379 53.163,85.551 53.195,85.901 53.787 C 86.277 54.423,86.307 54.407,86.203 53.623 C 86.032 52.333,85.754 52.243,84.926 53.214 M75.973 61.334 C 75.838 61.553,75.576 61.638,75.391 61.523 C 74.825 61.174,74.650 61.884,75.137 62.550 C 75.524 63.078,75.674 63.093,76.095 62.643 C 76.449 62.263,76.462 62.109,76.139 62.109 C 75.809 62.109,75.818 61.950,76.172 61.523 C 76.439 61.201,76.559 60.938,76.438 60.938 C 76.317 60.938,76.108 61.116,75.973 61.334 M72.827 63.770 L 71.680 65.039 72.949 63.892 C 74.133 62.822,74.398 62.500,74.097 62.500 C 74.029 62.500,73.458 63.071,72.827 63.770 M337.968 148.540 C 337.474 149.135,336.555 152.643,334.580 161.472 C 332.694 169.905,330.587 177.052,326.972 187.279 C 323.659 196.654,305.884 250.067,300.836 265.820 C 296.834 278.310,295.541 282.823,294.336 288.514 C 293.800 291.046,292.928 294.540,292.397 296.278 C 287.807 311.329,292.970 311.667,307.459 297.266 C 339.913 265.007,355.294 214.675,346.456 169.646 C 344.118 157.733,339.620 146.549,337.968 148.540 M60.793 151.270 C 57.500 155.599,53.772 171.190,52.784 184.766 C 48.699 240.879,73.934 290.653,121.567 320.438 C 127.659 324.248,129.305 324.594,128.643 321.928 C 128.279 320.461,114.962 284.046,103.126 252.148 C 100.735 245.703,97.935 238.145,96.904 235.352 C 95.873 232.559,90.594 218.320,85.172 203.711 C 79.750 189.102,73.748 172.754,71.835 167.383 C 65.965 150.905,63.645 147.520,60.793 151.270 M201.809 225.728 C 199.071 228.586,193.765 243.081,175.765 296.875 C 165.287 328.189,164.924 329.681,166.660 334.304 C 168.236 338.499,169.879 339.574,176.901 341.005 C 194.694 344.631,221.616 342.982,241.496 337.048 C 248.739 334.886,248.730 334.906,245.760 327.311 C 243.356 321.163,236.414 302.781,227.332 278.516 C 207.945 226.720,205.568 221.804,201.809 225.728 " stroke="none" fill="#06618e" fill-rule="evenodd"></path><path id="path1" d="M185.742 26.575 C 134.869 30.729,91.837 53.301,64.378 90.234 C 10.899 162.165,22.325 262.460,90.662 320.952 C 185.139 401.817,328.644 360.373,362.456 242.459 C 394.576 130.446,301.795 17.099,185.742 26.575 M212.736 44.935 C 240.481 47.158,267.661 56.892,288.471 72.057 C 297.819 78.869,298.239 80.548,291.263 83.210 C 279.279 87.782,271.982 100.764,274.239 113.502 C 275.458 120.386,277.740 124.956,288.369 141.797 C 304.558 167.449,305.964 183.932,295.117 220.898 C 290.924 235.185,283.925 260.028,281.970 267.560 C 279.341 277.692,278.783 278.906,276.758 278.906 C 274.776 278.906,274.915 279.243,265.827 252.344 C 261.126 238.429,257.506 227.991,248.827 203.320 C 245.350 193.438,239.899 177.881,236.712 168.750 C 233.526 159.619,229.087 146.958,226.847 140.613 C 220.545 122.760,220.288 123.593,232.443 122.471 C 236.191 122.125,239.821 121.592,240.510 121.287 C 243.094 120.142,244.156 115.281,242.509 112.132 C 240.574 108.432,239.131 108.092,228.355 108.793 C 204.710 110.331,193.040 110.405,170.508 109.163 C 156.121 108.369,154.707 108.395,153.094 109.482 C 151.041 110.866,150.000 112.695,150.000 114.921 C 150.000 120.636,154.297 122.595,166.934 122.643 C 171.670 122.661,172.286 123.273,174.602 130.273 C 176.470 135.919,178.969 142.691,188.295 167.383 C 196.153 188.188,195.892 185.093,191.047 200.000 C 185.790 216.174,172.436 257.659,167.375 273.537 C 165.879 278.231,165.323 279.482,164.379 280.275 C 161.580 282.631,161.065 281.786,155.922 266.393 C 153.520 259.203,148.019 243.037,143.698 230.469 C 139.377 217.900,132.093 196.543,127.512 183.008 C 122.931 169.473,116.888 151.649,114.084 143.400 C 106.985 122.520,106.519 123.852,121.402 122.508 C 128.971 121.824,130.078 121.009,130.078 116.118 C 130.078 110.679,127.274 108.381,121.094 108.753 C 109.796 109.433,92.480 110.582,87.891 110.955 C 74.856 112.014,73.685 110.327,81.428 101.641 C 117.643 61.014,163.932 41.024,212.736 44.935 M337.718 130.662 C 340.039 133.123,344.611 146.117,347.419 158.231 C 361.131 217.394,340.291 276.385,291.992 315.129 C 277.850 326.474,277.382 325.572,285.364 302.344 C 292.058 282.864,302.874 250.567,314.604 215.039 C 319.214 201.074,323.958 186.833,325.146 183.393 C 330.457 168.012,332.643 156.283,333.164 140.366 C 333.538 128.940,334.387 127.130,337.718 130.662 M62.491 137.495 C 63.737 138.162,64.701 140.209,67.368 147.852 C 71.957 161.003,75.476 170.559,91.608 213.672 C 95.186 223.232,99.842 235.713,101.956 241.406 C 104.070 247.100,109.343 261.250,113.674 272.852 C 132.561 323.445,133.111 325.100,131.543 326.581 C 129.695 328.326,126.228 326.831,115.625 319.717 C 61.834 283.625,37.606 219.890,53.709 156.836 C 58.005 140.016,59.802 136.056,62.491 137.495 M205.439 212.459 C 205.882 213.080,207.576 217.314,209.204 221.866 C 213.139 232.872,218.480 246.987,231.157 279.883 C 236.952 294.922,243.137 311.172,244.901 315.995 C 246.665 320.817,248.810 326.610,249.669 328.867 C 252.187 335.489,251.380 336.785,243.233 339.204 C 219.274 346.316,196.770 347.315,168.807 342.507 C 157.268 340.522,157.325 340.622,161.420 329.621 C 163.046 325.253,165.730 317.725,167.384 312.891 C 174.279 292.747,191.025 242.973,195.181 230.273 C 200.679 213.473,200.650 213.554,201.615 212.327 C 202.719 210.923,204.387 210.981,205.439 212.459 " stroke="none" fill="#d8d8d9" fill-rule="evenodd"></path><path id="path2" d="M170.748 20.623 C 170.716 20.985,170.320 21.057,169.361 20.877 C 168.623 20.739,167.811 20.755,167.555 20.913 C 167.300 21.070,166.278 21.249,165.284 21.310 C 153.077 22.058,126.835 31.495,109.435 41.396 C 106.782 42.906,104.540 44.141,104.452 44.141 C 102.031 44.141,79.975 61.361,71.680 69.728 C 65.838 75.620,53.516 90.172,53.516 91.180 C 53.516 91.284,52.044 93.531,50.245 96.173 C 42.338 107.784,34.582 123.802,29.734 138.532 C 26.937 147.032,24.355 158.437,24.773 160.449 C 24.873 160.933,24.783 161.328,24.573 161.328 C 24.356 161.328,24.401 161.706,24.679 162.207 C 24.947 162.690,25.117 163.252,25.058 163.455 C 24.998 163.658,25.121 164.185,25.330 164.627 C 25.539 165.068,25.818 165.762,25.950 166.169 C 26.082 166.576,26.295 166.804,26.423 166.676 C 27.763 165.336,27.930 167.448,27.939 185.910 C 27.962 229.782,38.359 262.521,62.313 294.152 C 63.936 296.294,65.344 298.047,65.443 298.047 C 65.542 298.047,64.409 296.409,62.924 294.408 C 18.783 234.903,19.382 150.755,64.378 90.234 C 87.264 59.453,123.111 37.407,163.086 29.531 C 222.310 17.862,278.022 34.042,320.296 75.188 C 326.362 81.091,326.489 81.191,322.538 76.953 C 320.235 74.482,318.133 72.278,317.867 72.055 C 317.601 71.831,315.713 70.100,313.672 68.206 C 281.214 38.099,243.622 24.029,192.969 23.032 C 179.173 22.760,175.518 22.600,175.098 22.249 C 174.936 22.115,174.492 22.008,172.774 21.692 C 171.768 21.508,171.067 21.144,170.963 20.754 C 170.870 20.404,170.773 20.345,170.748 20.623 M197.754 46.774 C 199.204 46.849,201.577 46.849,203.027 46.774 C 204.478 46.699,203.291 46.637,200.391 46.637 C 197.490 46.637,196.304 46.699,197.754 46.774 M189.360 47.151 C 189.846 47.245,190.549 47.241,190.923 47.143 C 191.296 47.046,190.898 46.969,190.039 46.974 C 189.180 46.978,188.874 47.058,189.360 47.151 M210.259 47.155 C 210.853 47.245,211.732 47.243,212.212 47.150 C 212.693 47.057,212.207 46.984,211.133 46.987 C 210.059 46.990,209.666 47.066,210.259 47.155 M215.137 47.541 C 215.620 47.634,216.411 47.634,216.895 47.541 C 217.378 47.448,216.982 47.372,216.016 47.372 C 215.049 47.372,214.653 47.448,215.137 47.541 M218.657 47.933 C 219.143 48.026,219.846 48.022,220.219 47.925 C 220.593 47.827,220.195 47.750,219.336 47.755 C 218.477 47.759,218.171 47.839,218.657 47.933 M221.582 48.316 C 221.958 48.414,222.573 48.414,222.949 48.316 C 223.325 48.218,223.018 48.138,222.266 48.138 C 221.514 48.138,221.206 48.218,221.582 48.316 M224.414 48.693 C 224.844 48.783,227.041 49.216,229.297 49.654 C 243.204 52.354,255.805 56.563,268.262 62.670 C 271.538 64.276,274.219 65.511,274.219 65.415 C 274.219 64.582,257.038 56.944,249.279 54.327 C 242.301 51.972,226.949 48.353,224.492 48.483 C 223.711 48.524,223.704 48.543,224.414 48.693 M163.086 51.356 C 160.988 52.048,161.814 52.075,164.258 51.395 C 165.332 51.096,165.859 50.849,165.430 50.846 C 165.000 50.843,163.945 51.073,163.086 51.356 M156.836 53.125 C 156.344 53.337,156.271 53.461,156.641 53.461 C 156.963 53.461,157.578 53.310,158.008 53.125 C 158.500 52.913,158.572 52.789,158.203 52.789 C 157.881 52.789,157.266 52.940,156.836 53.125 M149.414 55.678 C 148.437 56.148,148.405 56.203,149.219 56.004 C 150.326 55.733,151.570 55.099,150.977 55.108 C 150.762 55.111,150.059 55.367,149.414 55.678 M146.289 56.850 C 145.312 57.320,145.280 57.374,146.094 57.175 C 147.201 56.905,148.445 56.271,147.852 56.279 C 147.637 56.283,146.934 56.539,146.289 56.850 M143.359 58.008 C 142.822 58.315,142.559 58.566,142.773 58.566 C 142.988 58.566,143.604 58.315,144.141 58.008 C 144.678 57.701,144.941 57.450,144.727 57.450 C 144.512 57.450,143.896 57.701,143.359 58.008 M137.500 60.547 C 136.748 60.959,136.309 61.295,136.523 61.295 C 136.738 61.295,137.529 60.959,138.281 60.547 C 139.033 60.135,139.473 59.798,139.258 59.798 C 139.043 59.798,138.252 60.135,137.500 60.547 M133.496 62.333 C 131.982 63.154,132.153 63.438,133.691 62.656 C 135.164 61.907,135.424 61.713,134.928 61.734 C 134.731 61.743,134.087 62.012,133.496 62.333 M128.809 64.870 C 128.003 65.296,127.344 65.731,127.344 65.838 C 127.344 65.944,128.047 65.673,128.906 65.234 C 129.766 64.796,130.469 64.353,130.469 64.250 C 130.469 63.994,130.466 63.995,128.809 64.870 M122.941 68.324 C 116.538 72.228,104.297 81.096,104.297 81.831 C 104.297 81.928,106.153 80.587,108.421 78.853 C 111.703 76.343,122.390 69.016,126.399 66.527 C 126.811 66.271,127.054 66.051,126.938 66.039 C 126.823 66.026,125.024 67.055,122.941 68.324 M280.078 68.866 C 280.078 68.954,281.265 69.818,282.715 70.787 C 293.095 77.719,294.249 79.395,289.941 81.282 C 284.772 83.546,283.749 84.223,280.225 87.711 C 272.562 95.294,269.568 106.000,272.090 116.797 C 273.602 123.269,276.273 128.507,284.539 141.211 C 294.574 156.635,298.829 168.428,299.478 182.617 C 300.000 194.021,298.927 199.090,287.777 237.908 C 285.090 247.263,282.442 256.755,281.892 259.002 C 277.815 275.649,278.394 274.295,284.989 251.758 C 287.252 244.023,290.669 232.422,292.582 225.977 C 305.241 183.329,304.075 169.768,285.157 139.648 C 276.441 125.770,273.567 118.877,273.153 110.858 C 272.552 99.196,279.015 87.959,289.335 82.720 C 295.015 79.837,294.884 79.163,287.621 73.871 C 282.607 70.218,280.078 68.540,280.078 68.866 M327.734 83.008 C 328.463 83.760,329.147 84.375,329.255 84.375 C 329.362 84.375,328.854 83.760,328.125 83.008 C 327.396 82.256,326.712 81.641,326.605 81.641 C 326.497 81.641,327.006 82.256,327.734 83.008 M121.289 106.135 C 120.430 106.207,113.965 106.706,106.923 107.245 C 95.472 108.120,88.057 109.041,87.500 109.658 C 87.189 110.003,104.512 109.422,113.281 108.793 C 124.335 108.001,125.318 108.024,127.380 109.112 C 131.026 111.038,132.894 117.146,130.881 120.559 C 130.345 121.467,130.246 121.831,130.620 121.521 C 131.460 120.824,132.813 117.043,132.813 115.393 C 132.813 109.113,128.364 105.540,121.289 106.135 M153.843 106.321 C 143.061 109.192,146.312 124.730,157.663 124.572 L 160.352 124.534 157.813 124.080 C 150.911 122.846,147.444 117.062,150.405 111.724 C 152.600 107.767,153.181 107.687,172.070 108.753 C 190.614 109.799,212.958 109.447,232.192 107.807 C 234.751 107.589,237.476 107.524,238.247 107.664 C 246.156 109.093,247.440 120.364,240.022 123.241 C 238.827 123.704,238.743 123.787,239.648 123.608 C 244.638 122.622,247.605 114.817,244.803 110.050 C 242.238 105.687,240.612 105.408,224.108 106.497 C 209.678 107.449,183.303 107.457,168.359 106.514 C 156.858 105.788,155.893 105.775,153.843 106.321 M352.771 119.727 C 352.771 119.941,353.282 121.084,353.906 122.266 C 354.531 123.447,355.041 124.238,355.041 124.023 C 355.041 123.809,354.531 122.666,353.906 121.484 C 353.282 120.303,352.771 119.512,352.771 119.727 M236.235 124.104 C 236.721 124.198,237.424 124.194,237.798 124.097 C 238.171 123.999,237.773 123.922,236.914 123.927 C 236.055 123.931,235.749 124.011,236.235 124.104 M232.129 124.488 C 232.505 124.586,233.120 124.586,233.496 124.488 C 233.872 124.390,233.564 124.309,232.813 124.309 C 232.061 124.309,231.753 124.390,232.129 124.488 M356.278 127.148 C 356.278 127.363,356.529 127.979,356.836 128.516 C 357.143 129.053,357.394 129.316,357.394 129.102 C 357.394 128.887,357.143 128.271,356.836 127.734 C 356.529 127.197,356.278 126.934,356.278 127.148 M357.422 129.829 C 357.422 129.907,357.960 131.269,358.617 132.856 C 385.244 197.145,366.090 276.381,312.695 322.822 C 255.100 372.917,169.685 378.130,105.908 335.442 C 103.680 333.950,101.962 332.901,102.091 333.110 C 102.220 333.319,104.571 334.982,107.315 336.806 C 147.323 363.401,193.163 371.932,242.383 361.941 C 256.537 359.068,257.031 359.027,257.031 360.723 C 257.031 363.651,268.045 360.432,281.250 353.646 C 284.795 351.824,287.959 350.112,288.281 349.842 C 288.604 349.572,289.746 348.853,290.820 348.245 C 315.427 334.313,345.197 305.434,341.332 299.245 C 340.545 297.985,341.386 295.889,345.744 288.249 C 360.709 262.014,367.856 241.147,370.951 214.648 C 371.811 207.287,371.929 187.568,371.152 181.055 C 369.079 163.680,365.718 150.072,359.698 134.668 C 358.043 130.434,357.422 129.114,357.422 129.829 M173.842 133.406 C 173.797 134.682,176.213 141.705,182.302 158.008 C 190.830 180.838,192.188 184.783,192.188 186.745 C 192.188 188.102,187.938 201.643,172.460 249.609 C 169.626 258.392,167.310 265.971,166.029 270.655 C 164.579 275.955,163.972 277.232,162.797 277.458 C 161.976 277.616,161.971 277.632,162.732 277.681 C 164.785 277.815,163.574 281.217,189.227 203.244 C 192.809 192.357,193.750 189.043,193.750 187.321 C 193.750 184.781,173.924 131.086,173.842 133.406 M115.234 141.525 C 115.234 141.662,120.174 156.237,126.211 173.914 C 151.139 246.909,154.774 257.465,154.930 257.310 C 155.178 257.062,150.693 243.535,144.346 225.391 C 140.851 215.400,134.082 195.625,129.303 181.445 C 119.007 150.898,115.234 140.192,115.234 141.525 M229.297 142.273 C 229.297 142.690,249.609 200.952,263.715 240.998 C 266.802 249.763,267.578 251.797,267.578 251.127 C 267.578 250.603,258.096 223.098,247.663 193.359 C 244.836 185.303,240.584 173.174,238.214 166.406 C 231.425 147.022,229.297 141.262,229.297 142.273 M67.018 152.540 C 68.341 157.979,71.478 166.824,85.167 203.711 C 96.391 233.954,98.137 238.665,103.052 251.953 C 104.999 257.217,108.550 266.797,110.943 273.242 C 117.414 290.674,128.348 320.750,128.642 321.928 C 129.307 324.596,127.656 324.248,121.567 320.434 C 84.880 297.451,60.976 262.490,52.976 220.117 C 52.448 217.324,52.003 215.423,51.985 215.892 C 51.887 218.526,55.195 233.386,57.483 240.590 C 68.243 274.456,93.486 305.872,124.023 323.401 C 132.013 327.987,131.961 327.116,122.756 302.148 C 118.875 291.621,110.309 268.330,103.721 250.391 C 70.368 159.567,65.701 147.125,67.018 152.540 M345.703 160.456 C 345.703 160.693,345.964 162.127,346.283 163.644 C 356.554 212.470,340.819 263.769,303.923 301.745 C 300.103 305.677,299.153 306.798,301.023 305.168 C 339.370 271.746,357.437 217.419,347.229 166.229 C 346.188 161.007,345.703 159.174,345.703 160.456 M332.414 164.338 C 331.749 167.907,328.950 177.676,327.007 183.203 C 323.689 192.644,294.142 281.772,294.284 281.914 C 294.714 282.344,329.552 177.935,331.196 171.289 C 332.674 165.311,333.320 162.096,333.089 161.866 C 332.989 161.765,332.685 162.878,332.414 164.338 M50.893 205.273 C 50.896 206.348,50.972 206.741,51.062 206.147 C 51.151 205.553,51.149 204.674,51.056 204.194 C 50.964 203.713,50.890 204.199,50.893 205.273 M51.278 209.766 C 51.278 210.732,51.354 211.128,51.448 210.645 C 51.541 210.161,51.541 209.370,51.448 208.887 C 51.354 208.403,51.278 208.799,51.278 209.766 M51.653 213.281 C 51.653 214.033,51.734 214.341,51.832 213.965 C 51.930 213.589,51.930 212.974,51.832 212.598 C 51.734 212.222,51.653 212.529,51.653 213.281 M210.938 232.549 C 210.938 233.107,217.070 249.875,223.249 266.211 C 248.107 331.936,248.850 334.132,246.619 335.279 C 234.937 341.286,205.107 344.204,180.132 341.783 C 170.528 340.852,169.482 340.942,176.264 342.116 C 194.862 345.334,216.020 344.641,234.953 340.191 C 241.469 338.660,246.953 336.902,248.091 335.980 C 249.518 334.825,249.215 333.263,245.810 324.219 C 244.070 319.600,238.949 305.955,234.430 293.898 C 216.077 244.940,210.938 231.519,210.938 232.549 M193.268 241.408 C 192.071 244.952,187.718 257.783,183.594 269.922 C 171.475 305.599,165.221 324.373,165.338 324.725 C 165.605 325.525,174.305 300.447,186.495 263.739 C 191.584 248.414,195.679 235.671,195.596 235.421 C 195.512 235.170,194.465 237.865,193.268 241.408 M156.326 261.719 C 156.436 262.041,157.361 264.821,158.382 267.896 C 159.402 270.971,160.305 273.419,160.388 273.336 C 160.578 273.146,156.752 261.690,156.392 261.370 C 156.245 261.239,156.216 261.396,156.326 261.719 M68.750 302.466 C 68.750 302.533,69.321 303.104,70.020 303.736 L 71.289 304.883 70.142 303.613 C 69.072 302.430,68.750 302.164,68.750 302.466 M71.484 305.591 C 71.484 305.658,72.056 306.229,72.754 306.861 L 74.023 308.008 72.876 306.738 C 71.807 305.555,71.484 305.289,71.484 305.591 M79.492 314.063 C 81.633 316.211,83.472 317.969,83.579 317.969 C 83.687 317.969,82.023 316.211,79.883 314.063 C 77.742 311.914,75.903 310.156,75.796 310.156 C 75.688 310.156,77.352 311.914,79.492 314.063 M99.219 331.001 C 99.219 331.109,99.746 331.572,100.391 332.031 C 101.035 332.490,101.563 332.778,101.563 332.670 C 101.563 332.563,101.035 332.100,100.391 331.641 C 99.746 331.182,99.219 330.894,99.219 331.001 " stroke="none" fill="#72aace" fill-rule="evenodd"></path><path id="path3" d="M201.953 26.199 C 254.461 28.041,299.002 50.294,331.568 90.953 C 390.928 165.066,377.587 274.002,302.292 330.006 C 242.292 374.634,160.170 373.857,99.560 328.088 C 56.564 295.620,32.033 248.026,30.922 194.922 C 30.692 183.934,30.643 183.265,30.469 188.672 C 26.614 308.076,143.694 393.823,257.404 354.874 C 331.490 329.498,379.058 253.008,369.351 174.866 C 358.732 89.385,285.125 24.909,199.225 25.843 C 193.745 25.902,193.837 25.914,201.953 26.199 M187.212 26.452 C 187.806 26.542,188.685 26.540,189.166 26.447 C 189.646 26.354,189.160 26.281,188.086 26.284 C 187.012 26.287,186.619 26.362,187.212 26.452 M185.938 45.145 C 146.416 49.410,110.848 68.637,81.428 101.641 C 73.685 110.327,74.856 112.014,87.891 110.955 C 92.480 110.582,109.796 109.433,121.094 108.753 C 127.274 108.381,130.078 110.679,130.078 116.118 C 130.078 121.009,128.971 121.824,121.402 122.508 C 106.519 123.852,106.985 122.520,114.084 143.400 C 116.888 151.649,122.931 169.473,127.512 183.008 C 132.093 196.543,139.377 217.900,143.698 230.469 C 148.019 243.037,153.520 259.203,155.922 266.393 C 161.065 281.786,161.580 282.631,164.379 280.275 C 165.323 279.482,165.879 278.231,167.375 273.537 C 172.436 257.659,185.790 216.174,191.047 200.000 C 195.892 185.093,196.153 188.188,188.295 167.383 C 178.969 142.691,176.470 135.919,174.602 130.273 C 172.286 123.273,171.670 122.661,166.934 122.643 C 154.297 122.595,150.000 120.636,150.000 114.921 C 150.000 112.695,151.041 110.866,153.094 109.482 C 154.707 108.395,156.121 108.369,170.508 109.163 C 193.040 110.405,204.710 110.331,228.355 108.793 C 239.131 108.092,240.574 108.432,242.509 112.132 C 244.156 115.281,243.094 120.142,240.510 121.287 C 239.821 121.592,236.191 122.125,232.443 122.471 C 220.288 123.593,220.545 122.760,226.847 140.613 C 229.087 146.958,233.526 159.619,236.712 168.750 C 239.899 177.881,245.350 193.438,248.827 203.320 C 257.506 227.991,261.126 238.429,265.827 252.344 C 274.915 279.243,274.776 278.906,276.758 278.906 C 278.783 278.906,279.341 277.692,281.970 267.560 C 283.925 260.028,290.924 235.185,295.117 220.898 C 305.964 183.932,304.558 167.449,288.369 141.797 C 277.740 124.956,275.458 120.386,274.239 113.502 C 271.982 100.764,279.279 87.782,291.263 83.210 C 298.239 80.548,297.819 78.869,288.471 72.057 C 260.731 51.842,220.860 41.377,185.938 45.145 M215.430 47.280 C 242.328 49.833,268.111 59.447,288.576 74.556 C 294.815 79.162,294.884 79.903,289.335 82.720 C 279.015 87.959,272.552 99.196,273.153 110.858 C 273.567 118.877,276.441 125.770,285.157 139.648 C 304.313 170.148,305.313 183.023,292.009 227.930 C 289.781 235.449,286.788 245.645,285.358 250.586 C 278.177 275.393,277.493 277.048,275.631 274.121 C 275.131 273.336,268.262 254.138,260.360 231.445 C 258.790 226.934,252.054 207.686,245.393 188.672 C 238.731 169.658,231.843 149.883,230.085 144.727 C 228.326 139.570,226.375 133.868,225.749 132.056 C 223.531 125.639,223.894 125.212,232.294 124.367 C 242.257 123.365,244.940 121.530,244.913 115.735 C 244.885 109.486,240.987 107.057,232.192 107.807 C 212.958 109.447,190.614 109.799,172.070 108.753 C 153.181 107.687,152.600 107.767,150.405 111.724 C 146.243 119.227,152.424 124.550,165.350 124.594 C 170.803 124.612,171.394 124.958,172.484 128.768 C 172.843 130.026,173.926 132.981,174.890 135.336 C 181.457 151.374,193.750 185.262,193.750 187.325 C 193.750 189.042,192.805 192.367,189.227 203.244 C 163.897 280.235,164.781 277.734,162.914 277.734 C 161.910 277.734,161.198 276.152,158.082 266.986 C 156.476 262.263,153.131 252.510,150.650 245.313 C 139.878 214.072,115.780 143.360,113.377 135.938 C 109.941 125.325,109.588 125.975,119.363 124.915 C 127.653 124.016,129.179 123.468,130.720 120.838 C 132.893 117.130,131.181 111.120,127.380 109.112 C 125.316 108.022,124.263 107.999,113.477 108.802 C 109.180 109.123,100.355 109.487,93.867 109.612 C 76.451 109.947,76.395 109.904,83.608 101.758 C 113.687 67.782,150.189 49.446,193.164 46.722 C 196.886 46.487,210.722 46.833,215.430 47.280 M334.122 130.307 C 333.573 131.145,333.409 132.863,333.164 140.366 C 332.643 156.283,330.457 168.012,325.146 183.393 C 323.958 186.833,319.214 201.074,314.604 215.039 C 302.874 250.567,292.058 282.864,285.364 302.344 C 277.382 325.572,277.850 326.474,291.992 315.129 C 343.485 273.823,363.579 209.492,344.469 147.121 C 339.993 132.512,336.450 126.754,334.122 130.307 M337.589 135.059 C 340.706 138.603,346.967 161.622,349.092 177.344 C 349.992 184.001,350.107 205.140,349.280 211.914 C 344.641 249.941,327.382 282.296,298.242 307.592 C 281.310 322.292,280.276 322.228,285.723 306.817 C 287.390 302.101,291.562 289.717,294.994 279.297 C 303.001 254.988,324.967 189.068,327.014 183.203 C 332.062 168.738,334.497 156.810,335.115 143.510 C 335.514 134.927,336.004 133.255,337.589 135.059 M60.036 137.807 C 58.249 139.782,53.265 156.718,51.217 167.773 C 39.654 230.209,68.781 293.119,124.023 325.023 C 129.199 328.012,132.422 327.914,132.422 324.766 C 132.422 323.679,125.709 305.090,113.674 272.852 C 109.343 261.250,104.070 247.100,101.956 241.406 C 99.842 235.713,95.186 223.232,91.608 213.672 C 75.476 170.559,71.957 161.003,67.368 147.852 C 63.787 137.591,62.200 135.416,60.036 137.807 M63.293 141.504 C 63.722 142.202,64.604 144.420,65.253 146.432 C 65.901 148.444,67.727 153.366,69.310 157.369 C 72.115 164.465,79.213 183.652,103.721 250.391 C 110.309 268.330,118.875 291.621,122.756 302.148 C 132.871 329.585,132.818 329.708,115.820 318.213 C 62.413 282.094,39.927 220.425,56.280 154.916 C 59.931 140.287,61.131 137.992,63.293 141.504 M31.731 172.266 C 31.731 173.018,31.812 173.325,31.910 172.949 C 32.008 172.573,32.008 171.958,31.910 171.582 C 31.812 171.206,31.731 171.514,31.731 172.266 M31.356 175.781 C 31.356 176.748,31.433 177.144,31.526 176.660 C 31.619 176.177,31.619 175.386,31.526 174.902 C 31.433 174.419,31.356 174.814,31.356 175.781 M30.976 180.078 C 30.976 181.260,31.050 181.743,31.139 181.152 C 31.229 180.562,31.229 179.595,31.139 179.004 C 31.050 178.413,30.976 178.896,30.976 180.078 M201.615 212.327 C 200.650 213.554,200.679 213.473,195.181 230.273 C 191.025 242.973,174.279 292.747,167.384 312.891 C 165.730 317.725,163.046 325.253,161.420 329.621 C 157.325 340.622,157.268 340.522,168.807 342.507 C 196.770 347.315,219.274 346.316,243.233 339.204 C 251.380 336.785,252.187 335.489,249.669 328.867 C 248.810 326.610,246.665 320.817,244.901 315.995 C 243.137 311.172,236.952 294.922,231.157 279.883 C 218.480 246.987,213.139 232.872,209.204 221.866 C 205.343 211.069,203.966 209.338,201.615 212.327 M204.898 215.399 C 205.239 215.919,206.626 219.566,207.980 223.504 C 209.334 227.442,211.269 232.773,212.280 235.352 C 214.826 241.846,224.678 267.886,234.447 293.945 C 238.957 305.977,244.070 319.600,245.810 324.219 C 250.151 335.748,250.149 335.759,243.618 337.850 C 220.050 345.395,191.896 346.090,164.453 339.805 C 160.409 338.879,160.143 337.845,162.473 332.104 C 163.318 330.023,166.636 320.410,169.847 310.742 C 176.423 290.946,189.306 252.925,194.135 239.063 C 195.894 234.014,198.276 226.834,199.427 223.108 C 202.141 214.327,203.210 212.821,204.898 215.399 " stroke="none" fill="#a2afbb" fill-rule="evenodd"></path><path id="path4" d="M190.234 11.210 C 172.148 12.078,145.145 18.130,130.859 24.518 C 129.893 24.951,127.344 26.057,125.195 26.977 C 123.047 27.897,119.262 29.674,116.785 30.926 C 114.308 32.179,112.081 33.203,111.837 33.203 C 111.593 33.203,111.335 33.340,111.263 33.507 C 111.191 33.673,108.232 35.534,104.688 37.641 C 98.806 41.136,92.801 45.028,89.723 47.339 C 87.859 48.739,82.703 52.862,82.000 53.516 C 81.653 53.838,79.980 55.237,78.282 56.625 C 74.995 59.312,61.315 72.840,59.897 74.805 C 59.091 75.921,58.441 76.708,56.508 78.906 C 56.035 79.443,54.246 81.729,52.531 83.984 C 50.817 86.240,49.315 88.174,49.193 88.281 C 48.955 88.491,46.542 91.967,45.898 93.026 C 45.684 93.379,44.825 94.698,43.990 95.955 C 40.716 100.887,39.869 102.260,38.246 105.273 C 37.319 106.992,36.421 108.457,36.249 108.529 C 36.078 108.600,35.932 108.952,35.925 109.310 C 35.918 109.668,35.393 110.840,34.758 111.914 C 34.123 112.988,33.493 114.131,33.358 114.453 C 33.222 114.775,32.330 116.700,31.375 118.731 C 29.624 122.453,27.350 127.779,26.280 130.664 C 25.962 131.523,25.543 132.532,25.351 132.905 C 25.158 133.278,24.999 133.805,24.998 134.077 C 24.996 134.348,24.726 135.086,24.397 135.717 C 24.069 136.347,23.647 137.490,23.461 138.256 C 23.274 139.022,22.473 141.758,21.681 144.336 C 20.249 148.995,19.376 152.285,18.778 155.273 C 18.607 156.133,18.191 157.979,17.854 159.375 C 17.517 160.771,16.961 163.584,16.617 165.625 C 16.274 167.666,15.822 170.303,15.612 171.484 C 13.654 182.538,13.467 208.090,15.253 220.703 C 17.396 235.839,21.235 251.208,26.105 264.139 C 27.711 268.406,27.922 268.912,30.036 273.579 C 30.704 275.053,31.250 276.504,31.250 276.802 C 31.250 277.100,31.426 277.344,31.641 277.344 C 31.855 277.344,32.032 277.563,32.033 277.832 C 32.035 278.534,36.176 286.651,38.789 291.075 C 40.014 293.148,41.016 295.038,41.016 295.274 C 41.016 295.510,41.288 296.011,41.621 296.387 C 42.435 297.305,44.862 300.831,45.184 301.563 C 45.505 302.291,47.681 305.471,48.340 306.175 C 48.608 306.462,48.828 306.816,48.829 306.961 C 48.829 307.107,49.224 307.698,49.708 308.275 C 50.191 308.852,51.289 310.318,52.148 311.533 C 53.008 312.747,54.063 314.151,54.492 314.653 C 54.922 315.154,55.801 316.222,56.445 317.026 C 57.090 317.829,58.013 318.906,58.496 319.418 C 58.979 319.929,59.375 320.447,59.375 320.567 C 59.375 320.852,62.489 324.093,69.585 331.193 C 75.492 337.103,77.707 339.117,81.055 341.623 C 82.129 342.427,83.630 343.631,84.391 344.297 C 85.152 344.963,86.373 345.947,87.105 346.484 C 87.837 347.021,89.500 348.267,90.800 349.252 C 92.100 350.237,93.340 351.116,93.555 351.205 C 93.770 351.294,95.703 352.525,97.852 353.941 C 100.000 355.357,102.725 357.151,103.906 357.927 C 105.088 358.704,107.109 360.069,108.398 360.961 C 109.688 361.852,111.709 363.116,112.891 363.768 C 114.072 364.421,115.479 365.237,116.017 365.583 C 119.016 367.509,122.614 369.531,123.041 369.531 C 123.259 369.531,123.438 369.680,123.438 369.863 C 123.438 370.045,124.185 370.502,125.098 370.879 C 126.011 371.256,127.021 371.713,127.344 371.895 C 128.692 372.656,133.479 374.980,134.473 375.355 C 135.063 375.579,135.547 375.922,135.547 376.117 C 135.547 376.312,136.558 376.876,137.793 377.370 C 139.028 377.864,140.391 378.488,140.820 378.757 C 141.250 379.026,142.480 379.464,143.555 379.730 C 144.629 379.997,146.035 380.535,146.680 380.926 C 147.324 381.318,148.257 381.638,148.754 381.639 C 149.250 381.640,149.548 381.814,149.417 382.027 C 149.282 382.245,149.432 382.315,149.764 382.188 C 150.086 382.064,150.843 382.233,151.445 382.562 C 152.047 382.892,153.682 383.546,155.078 384.015 C 156.475 384.484,158.057 385.084,158.594 385.349 C 159.131 385.613,160.361 385.946,161.328 386.087 C 162.295 386.229,163.525 386.415,164.063 386.501 C 164.600 386.587,166.408 387.117,168.080 387.679 C 169.753 388.241,171.271 388.608,171.454 388.495 C 171.636 388.383,173.168 388.646,174.858 389.081 C 176.547 389.517,178.719 389.968,179.684 390.084 C 180.649 390.200,181.638 390.460,181.881 390.662 C 182.124 390.864,182.609 390.919,182.958 390.785 C 183.308 390.651,183.901 390.677,184.277 390.842 C 184.653 391.007,185.796 391.106,186.816 391.062 C 187.837 391.017,188.672 391.136,188.672 391.324 C 188.672 391.664,188.938 391.727,190.813 391.838 C 191.417 391.873,191.683 392.060,191.519 392.334 C 191.375 392.576,191.564 392.523,191.941 392.217 C 192.498 391.765,192.969 391.743,194.458 392.100 C 196.974 392.702,200.259 393.090,202.246 393.020 C 203.590 392.974,203.907 393.093,203.912 393.649 C 203.917 394.229,203.975 394.246,204.285 393.755 C 204.577 393.294,204.878 393.260,205.746 393.588 C 206.381 393.827,207.323 393.871,207.994 393.692 C 208.774 393.483,209.246 393.538,209.451 393.860 C 209.617 394.122,209.759 394.160,209.766 393.945 C 209.772 393.730,209.948 393.818,210.156 394.141 C 210.365 394.463,210.538 394.543,210.541 394.318 C 210.548 393.841,214.792 393.796,215.527 394.266 C 215.816 394.450,216.016 394.393,216.016 394.127 C 216.016 393.807,216.609 393.762,218.066 393.970 C 219.194 394.132,220.645 394.238,221.289 394.205 C 221.934 394.173,222.697 394.297,222.986 394.482 C 223.309 394.689,224.251 394.538,225.432 394.089 C 227.682 393.234,228.263 393.178,227.924 393.848 C 227.788 394.116,227.909 394.058,228.194 393.718 C 228.808 392.983,232.243 392.701,231.797 393.422 C 231.606 393.731,231.690 393.761,232.069 393.517 C 232.370 393.323,233.320 393.141,234.180 393.114 C 236.821 393.029,239.599 392.659,240.662 392.251 C 241.220 392.037,242.495 391.828,243.494 391.787 C 244.494 391.746,245.911 391.687,246.642 391.657 C 247.374 391.626,247.891 391.470,247.791 391.309 C 247.597 390.994,247.716 390.951,249.219 390.787 C 249.756 390.729,251.250 390.494,252.539 390.265 C 255.580 389.725,255.984 389.737,255.743 390.365 C 255.633 390.651,255.781 390.885,256.071 390.885 C 256.463 390.885,256.499 390.700,256.212 390.163 C 255.720 389.245,256.257 389.020,259.153 388.933 C 260.347 388.897,261.325 388.753,261.326 388.613 C 261.327 388.474,261.899 388.357,262.598 388.354 C 264.042 388.348,266.149 387.382,265.717 386.923 C 265.559 386.756,265.999 386.699,266.695 386.796 C 267.655 386.930,268.163 386.758,268.799 386.081 C 269.514 385.319,272.365 384.478,273.290 384.756 C 273.430 384.798,273.663 384.642,273.806 384.410 C 273.950 384.178,274.528 383.950,275.091 383.903 C 275.655 383.857,276.046 383.707,275.962 383.570 C 275.698 383.143,277.633 382.313,278.148 382.631 C 278.464 382.827,278.538 382.774,278.358 382.482 C 278.184 382.201,278.361 382.031,278.829 382.031 C 279.241 382.031,280.180 381.623,280.915 381.124 C 281.651 380.625,282.466 380.288,282.728 380.375 C 282.989 380.463,283.203 380.343,283.203 380.111 C 283.203 379.878,283.335 379.724,283.496 379.768 C 283.657 379.812,284.360 379.544,285.059 379.172 C 285.757 378.800,286.331 378.632,286.334 378.799 C 286.337 378.965,286.469 378.922,286.627 378.702 C 287.558 377.405,290.218 376.480,290.252 377.441 C 290.261 377.710,290.508 377.257,290.801 376.436 C 291.442 374.640,291.368 374.719,292.570 374.550 C 293.102 374.475,293.832 374.150,294.191 373.828 C 296.703 371.572,297.348 371.094,297.881 371.094 C 298.222 371.094,298.368 370.906,298.216 370.661 C 298.036 370.370,298.253 370.305,298.877 370.462 C 299.387 370.591,299.585 370.595,299.316 370.472 C 298.484 370.089,298.777 369.462,299.658 369.742 C 300.217 369.919,300.401 369.864,300.221 369.573 C 300.074 369.335,300.130 369.141,300.346 369.141 C 300.562 369.141,300.970 368.657,301.252 368.066 C 301.541 367.460,302.147 366.938,302.640 366.867 C 303.122 366.799,303.516 366.558,303.516 366.334 C 303.516 366.109,303.950 366.008,304.480 366.109 C 305.019 366.212,305.346 366.133,305.221 365.930 C 304.914 365.434,306.656 363.635,307.148 363.940 C 307.366 364.074,307.423 363.990,307.276 363.752 C 307.018 363.335,308.487 362.249,309.082 362.417 C 309.243 362.463,309.375 362.061,309.375 361.523 C 309.375 360.859,309.593 360.543,310.059 360.534 C 310.926 360.519,312.022 359.692,311.855 359.180 C 311.784 358.965,312.528 358.438,313.508 358.008 C 314.583 357.536,315.601 356.723,316.075 355.957 C 316.798 354.788,317.240 354.502,318.095 354.651 C 318.273 354.682,318.306 354.527,318.170 354.307 C 318.034 354.086,318.207 353.906,318.555 353.906 C 318.902 353.906,319.074 353.723,318.936 353.500 C 318.774 353.238,319.079 353.170,319.791 353.307 C 320.400 353.424,320.679 353.417,320.410 353.290 C 320.142 353.163,319.922 352.888,319.922 352.679 C 319.922 352.469,320.098 352.406,320.313 352.539 C 320.527 352.672,320.703 352.508,320.703 352.175 C 320.703 351.842,321.055 351.350,321.484 351.081 C 321.914 350.813,322.266 350.362,322.266 350.078 C 322.266 349.795,322.429 349.664,322.629 349.788 C 322.829 349.912,323.103 349.834,323.238 349.616 C 323.373 349.397,323.749 349.219,324.074 349.219 C 324.735 349.219,325.781 348.305,325.781 347.728 C 325.781 347.521,326.440 347.223,327.246 347.064 C 328.052 346.905,328.491 346.695,328.223 346.597 C 327.411 346.301,327.669 345.825,328.923 345.306 C 329.576 345.035,330.918 344.051,331.905 343.119 C 332.891 342.187,333.849 341.518,334.032 341.631 C 334.216 341.745,334.270 341.587,334.153 341.282 C 333.908 340.643,335.046 339.339,335.567 339.661 C 335.758 339.779,336.027 339.429,336.164 338.883 C 336.386 337.997,336.750 337.724,337.563 337.833 C 337.704 337.852,338.539 337.170,339.418 336.317 C 340.297 335.464,341.016 334.863,341.016 334.981 C 341.016 335.100,341.455 334.722,341.992 334.143 C 342.529 333.563,342.969 332.939,342.969 332.755 C 342.969 332.572,343.325 332.422,343.760 332.422 C 344.244 332.422,344.695 332.043,344.922 331.445 C 345.144 330.861,345.601 330.469,346.061 330.469 C 346.483 330.469,346.947 330.278,347.091 330.044 C 347.236 329.811,347.686 329.706,348.091 329.812 C 348.517 329.924,348.828 329.803,348.828 329.526 C 348.828 328.779,350.972 326.562,351.695 326.563 C 352.052 326.563,352.344 326.387,352.344 326.172 C 352.344 325.957,352.563 325.777,352.832 325.773 C 353.101 325.768,353.848 325.132,354.492 324.360 C 356.771 321.627,357.385 321.025,357.696 321.217 C 357.868 321.324,358.800 320.471,359.766 319.322 C 360.733 318.174,361.754 317.224,362.035 317.211 C 362.316 317.198,362.440 317.015,362.310 316.805 C 361.948 316.219,362.860 314.782,363.399 315.091 C 363.656 315.239,363.740 315.219,363.585 315.047 C 363.430 314.876,363.739 314.217,364.271 313.585 C 364.804 312.952,365.152 312.291,365.044 312.117 C 364.850 311.804,365.953 311.151,366.490 311.261 C 366.643 311.293,366.668 311.057,366.546 310.738 C 366.298 310.092,367.002 309.931,367.383 310.547 C 367.516 310.762,367.834 310.932,368.089 310.925 C 368.345 310.918,368.203 310.644,367.773 310.317 C 367.042 309.758,367.035 309.696,367.676 309.333 C 368.052 309.120,368.359 308.685,368.359 308.367 C 368.359 308.048,368.622 307.687,368.943 307.564 C 369.264 307.441,369.430 307.183,369.311 306.990 C 369.192 306.798,369.269 306.641,369.482 306.641 C 369.695 306.641,369.985 306.276,370.126 305.831 C 370.273 305.369,370.607 305.108,370.905 305.222 C 371.192 305.332,371.641 305.165,371.902 304.851 C 372.297 304.375,372.252 304.324,371.637 304.549 C 370.913 304.814,370.913 304.803,371.634 303.982 C 372.039 303.521,372.520 303.236,372.704 303.350 C 372.888 303.463,372.937 303.292,372.813 302.970 C 372.689 302.648,372.962 301.983,373.419 301.493 C 373.875 301.003,374.348 300.209,374.468 299.729 C 374.588 299.249,374.977 298.764,375.332 298.651 C 375.715 298.529,376.010 297.966,376.059 297.265 C 376.106 296.585,376.558 295.698,377.127 295.172 C 377.669 294.669,378.002 294.148,377.868 294.014 C 377.733 293.879,377.854 293.491,378.135 293.151 C 378.562 292.637,378.555 292.554,378.093 292.654 C 377.279 292.829,377.587 290.582,378.481 289.822 C 378.874 289.488,379.319 288.826,379.470 288.351 C 379.621 287.877,379.887 287.577,380.062 287.685 C 380.237 287.794,380.373 287.664,380.363 287.398 C 380.313 286.010,380.527 285.153,381.057 284.624 C 381.380 284.300,381.682 283.585,381.728 283.033 C 381.787 282.316,382.037 282.030,382.605 282.025 C 383.192 282.021,383.262 281.933,382.874 281.687 C 382.208 281.265,383.125 279.574,383.866 279.858 C 384.196 279.985,384.243 279.789,384.025 279.199 C 383.655 278.201,384.320 275.778,385.039 275.502 C 385.319 275.395,385.547 275.140,385.547 274.935 C 385.547 274.731,385.327 274.695,385.059 274.857 C 384.682 275.083,384.673 275.021,385.018 274.587 C 385.265 274.277,385.686 273.282,385.955 272.376 C 386.224 271.470,386.550 270.794,386.679 270.874 C 386.808 270.954,386.893 270.290,386.867 269.397 C 386.810 267.478,387.281 266.027,388.201 265.279 C 388.826 264.772,388.825 264.753,388.184 264.974 C 387.333 265.267,387.239 264.246,388.086 263.921 C 388.439 263.786,388.676 263.187,388.681 262.415 C 388.686 261.710,389.024 259.879,389.431 258.347 C 389.839 256.815,390.295 254.748,390.444 253.753 C 390.593 252.758,390.871 251.847,391.062 251.729 C 391.253 251.611,391.302 251.086,391.170 250.562 C 391.036 250.028,391.103 249.609,391.322 249.609 C 391.733 249.609,392.389 247.737,392.211 247.070 C 391.972 246.176,393.112 240.277,393.480 240.505 C 393.695 240.637,393.779 240.587,393.667 240.392 C 393.555 240.198,393.617 237.666,393.803 234.766 C 393.990 231.865,394.158 229.229,394.177 228.906 C 394.196 228.584,394.404 227.705,394.640 226.953 C 394.876 226.201,395.020 225.083,394.961 224.468 C 394.880 223.621,394.981 223.426,395.376 223.664 C 395.787 223.911,395.802 223.858,395.446 223.415 C 395.147 223.043,394.996 220.843,395.000 216.926 C 395.004 213.668,394.915 210.852,394.802 210.669 C 394.689 210.486,394.591 207.264,394.584 203.508 C 394.577 199.753,394.392 195.361,394.173 193.750 C 393.953 192.139,393.769 189.648,393.762 188.216 C 393.755 186.683,393.574 185.553,393.321 185.469 C 393.085 185.390,392.799 184.101,392.684 182.604 C 392.569 181.108,392.324 179.589,392.139 179.230 C 391.954 178.871,391.627 177.465,391.414 176.105 C 391.200 174.745,390.840 172.842,390.615 171.875 C 390.390 170.908,390.123 169.592,390.021 168.950 C 389.787 167.466,389.499 166.507,388.843 165.039 C 388.555 164.395,387.953 162.461,387.506 160.742 C 387.059 159.023,386.348 156.299,385.926 154.688 C 385.504 153.076,384.983 151.406,384.767 150.977 C 384.551 150.547,383.600 147.998,382.652 145.313 C 379.620 136.722,378.188 132.896,377.525 131.613 C 377.169 130.925,376.454 129.235,375.935 127.857 C 375.416 126.479,374.379 124.059,373.629 122.479 C 372.879 120.899,372.266 119.361,372.266 119.061 C 372.266 118.761,372.112 118.349,371.924 118.145 C 371.737 117.940,370.177 115.031,368.458 111.679 C 366.739 108.328,364.696 104.589,363.916 103.371 C 363.137 102.153,362.500 101.045,362.500 100.908 C 362.500 100.772,362.061 100.084,361.523 99.379 C 360.986 98.675,360.547 98.002,360.547 97.883 C 360.547 97.764,359.976 96.808,359.277 95.758 C 356.359 91.370,354.895 89.246,354.662 89.063 C 354.525 88.955,353.972 88.164,353.432 87.305 C 352.892 86.445,351.815 85.039,351.039 84.180 C 350.263 83.320,349.623 82.481,349.618 82.314 C 349.613 82.147,349.095 81.444,348.467 80.751 C 346.433 78.509,345.703 77.620,345.703 77.382 C 345.703 77.253,344.428 75.815,342.871 74.185 C 341.313 72.555,339.226 70.358,338.232 69.302 C 335.576 66.482,328.285 59.484,325.586 57.167 C 324.297 56.060,322.782 54.742,322.219 54.237 C 321.656 53.733,320.273 52.617,319.146 51.758 C 318.018 50.898,316.387 49.616,315.522 48.909 C 314.657 48.202,313.579 47.428,313.127 47.190 C 312.675 46.953,312.217 46.647,312.109 46.511 C 312.002 46.375,311.017 45.696,309.920 45.002 C 308.823 44.309,307.609 43.392,307.223 42.964 C 306.836 42.537,306.359 42.187,306.162 42.187 C 305.966 42.187,305.038 41.660,304.102 41.016 C 303.165 40.371,302.271 39.844,302.115 39.844 C 301.959 39.844,301.201 39.362,300.429 38.774 C 292.174 32.478,267.671 22.010,249.414 16.981 C 232.552 12.335,210.861 10.220,190.234 11.210 M210.547 15.037 C 211.729 15.151,213.750 15.333,215.039 15.442 C 219.225 15.796,221.619 16.121,229.450 17.401 C 234.670 18.253,239.336 19.216,242.773 20.150 C 242.988 20.209,244.570 20.631,246.289 21.090 C 271.843 27.905,296.698 41.234,317.543 59.302 C 402.088 132.584,402.118 262.702,317.606 332.813 C 316.440 333.779,314.859 335.116,314.091 335.782 C 310.401 338.987,298.373 347.475,293.359 350.414 C 246.856 377.673,197.205 383.749,146.849 368.343 C 104.959 355.527,68.537 326.843,43.204 286.719 C 40.406 282.286,37.546 277.344,37.779 277.344 C 37.893 277.344,37.808 277.124,37.589 276.855 C 35.989 274.887,30.436 262.820,27.926 255.859 C 23.606 243.878,19.378 226.821,18.532 217.969 C 18.440 217.002,18.251 215.508,18.113 214.648 C 17.854 213.040,17.831 212.781,17.409 206.836 C 16.999 201.048,16.849 186.852,17.183 185.370 C 17.363 184.573,17.347 184.081,17.146 184.205 C 16.676 184.496,16.706 184.102,17.228 183.128 C 17.542 182.541,17.541 182.066,17.225 181.371 C 16.961 180.791,16.945 180.514,17.185 180.662 C 17.415 180.805,17.601 180.370,17.634 179.613 C 17.802 175.716,18.063 173.155,18.619 169.922 C 18.749 169.170,18.875 167.896,18.900 167.090 C 18.925 166.284,19.074 165.625,19.231 165.625 C 19.388 165.625,19.455 165.098,19.380 164.453 C 19.305 163.809,19.358 163.281,19.499 163.281 C 19.640 163.281,19.780 162.974,19.810 162.598 C 19.840 162.222,19.958 161.475,20.071 160.938 C 20.440 159.191,20.650 158.026,20.775 157.031 C 20.843 156.494,21.021 155.962,21.171 155.849 C 21.321 155.736,21.523 154.790,21.619 153.748 C 21.716 152.706,22.032 151.703,22.323 151.519 C 22.758 151.243,22.752 151.183,22.289 151.178 C 21.885 151.174,21.940 151.010,22.484 150.598 C 22.936 150.257,23.039 150.020,22.740 150.012 C 22.353 150.003,22.338 149.814,22.674 149.185 C 22.914 148.737,23.013 148.274,22.895 148.155 C 22.776 148.037,23.038 147.437,23.476 146.821 C 23.914 146.206,24.090 145.703,23.867 145.703 C 23.644 145.703,23.563 145.440,23.686 145.119 C 23.809 144.798,24.111 144.648,24.357 144.786 C 24.648 144.949,24.639 144.857,24.330 144.524 C 23.954 144.118,23.995 143.906,24.525 143.503 C 25.076 143.084,25.091 142.989,24.609 142.969 C 24.159 142.950,24.200 142.811,24.782 142.370 C 25.199 142.055,25.336 141.797,25.087 141.797 C 24.838 141.797,24.738 141.526,24.865 141.194 C 24.992 140.863,25.187 140.682,25.298 140.793 C 25.753 141.248,26.803 138.470,26.450 137.746 C 26.214 137.261,26.229 137.099,26.497 137.264 C 26.718 137.401,27.010 137.334,27.144 137.116 C 27.279 136.897,27.160 136.716,26.879 136.713 C 26.525 136.709,26.502 136.618,26.803 136.420 C 27.481 135.973,27.954 134.195,27.288 134.596 C 26.857 134.856,26.848 134.804,27.243 134.316 C 27.509 133.987,27.630 133.619,27.510 133.499 C 27.390 133.379,27.467 133.173,27.681 133.041 C 27.896 132.908,28.198 133.006,28.354 133.257 C 28.545 133.567,28.460 133.612,28.088 133.396 C 27.786 133.221,27.656 133.209,27.799 133.368 C 28.252 133.873,28.643 133.436,28.730 132.329 C 28.777 131.742,28.666 131.352,28.485 131.464 C 28.304 131.576,28.342 131.134,28.569 130.482 C 29.050 129.105,29.452 128.886,29.131 130.176 C 29.012 130.659,29.015 130.834,29.139 130.564 C 29.262 130.294,29.483 130.147,29.629 130.237 C 29.775 130.327,29.915 129.891,29.940 129.268 C 29.967 128.616,29.824 128.236,29.603 128.373 C 29.392 128.503,29.418 128.237,29.662 127.782 C 30.159 126.853,30.558 126.657,30.235 127.500 C 30.119 127.800,30.217 128.165,30.452 128.310 C 30.687 128.455,30.854 128.429,30.823 128.252 C 30.655 127.288,30.912 126.158,31.250 126.367 C 31.465 126.500,31.656 126.466,31.675 126.293 C 31.956 123.672,31.942 123.446,31.513 123.703 C 31.254 123.859,31.286 123.693,31.587 123.322 C 31.879 122.961,32.009 122.356,31.874 121.978 C 31.717 121.534,31.922 121.637,32.451 122.266 C 32.902 122.803,33.179 123.058,33.067 122.833 C 32.956 122.608,33.018 122.174,33.207 121.869 C 33.408 121.543,33.393 121.127,33.169 120.858 C 32.693 120.284,33.533 118.276,34.102 118.627 C 34.318 118.761,34.380 118.684,34.239 118.455 C 33.899 117.906,34.359 116.741,34.807 117.017 C 35.329 117.340,35.229 116.639,34.668 116.046 C 34.265 115.620,34.332 115.608,35.053 115.979 C 36.135 116.535,37.373 114.349,36.567 113.306 C 36.214 112.850,36.271 112.796,36.872 113.022 C 37.479 113.250,37.528 113.200,37.148 112.742 C 36.773 112.290,36.891 112.111,37.777 111.788 C 38.454 111.540,38.608 111.378,38.184 111.359 C 37.808 111.342,37.500 111.152,37.500 110.938 C 37.500 110.723,37.698 110.591,37.939 110.645 C 38.181 110.698,38.468 110.498,38.576 110.200 C 38.705 109.846,38.606 109.760,38.293 109.954 C 37.925 110.181,37.910 110.068,38.229 109.474 C 38.457 109.046,38.519 108.557,38.365 108.387 C 38.212 108.217,38.298 108.200,38.557 108.348 C 38.816 108.497,38.929 108.877,38.808 109.192 C 38.687 109.508,38.780 109.766,39.013 109.766 C 39.496 109.766,40.028 108.035,39.705 107.513 C 39.588 107.324,39.873 107.182,40.339 107.198 C 41.441 107.235,41.709 105.982,40.757 105.243 C 40.066 104.706,40.067 104.695,40.787 104.948 C 41.364 105.151,41.458 105.084,41.200 104.656 C 40.915 104.183,40.962 104.180,41.527 104.638 C 42.109 105.110,42.188 105.073,42.188 104.322 C 42.188 103.750,42.026 103.562,41.699 103.751 C 41.431 103.905,41.299 103.930,41.406 103.806 C 41.514 103.682,41.740 103.572,41.908 103.562 C 42.404 103.532,43.359 102.442,43.359 101.906 C 43.359 101.621,43.137 101.717,42.833 102.133 C 42.422 102.695,42.238 102.741,41.991 102.343 C 41.783 102.005,41.829 101.927,42.127 102.111 C 42.527 102.358,42.750 101.902,42.629 101.088 C 42.606 100.935,42.878 100.921,43.233 101.057 C 43.647 101.216,43.783 101.151,43.612 100.875 C 43.466 100.638,43.552 100.317,43.804 100.162 C 44.090 99.985,44.157 100.049,43.983 100.330 C 43.829 100.578,43.861 100.781,44.052 100.781 C 44.811 100.781,44.890 100.219,44.239 99.452 C 43.611 98.713,43.610 98.689,44.227 99.167 C 45.042 99.797,46.365 98.799,45.837 97.952 C 45.327 97.137,45.358 96.526,45.897 96.733 C 46.177 96.841,46.538 96.713,46.701 96.451 C 46.902 96.125,46.833 96.074,46.484 96.289 C 46.139 96.503,46.067 96.453,46.263 96.135 C 46.487 95.773,46.697 95.781,47.180 96.172 C 47.656 96.558,47.735 96.562,47.511 96.189 C 47.334 95.893,47.465 95.602,47.841 95.458 C 48.408 95.240,48.410 95.133,47.857 94.289 C 47.522 93.778,47.340 93.359,47.452 93.359 C 47.948 93.359,48.234 93.580,48.132 93.884 C 48.072 94.066,48.232 94.144,48.489 94.058 C 48.972 93.897,49.344 92.576,48.889 92.636 C 48.265 92.720,48.019 92.549,48.243 92.186 C 48.397 91.937,48.733 91.927,49.166 92.159 C 50.100 92.659,50.675 92.190,50.615 90.977 C 50.576 90.186,50.718 90.003,51.259 90.144 C 51.641 90.244,51.953 90.129,51.953 89.889 C 51.953 89.234,51.785 88.858,51.530 88.943 C 51.405 88.985,51.302 88.780,51.302 88.489 C 51.302 88.045,51.438 88.047,52.129 88.500 C 52.893 89.000,52.963 88.966,53.038 88.054 C 53.083 87.511,52.961 87.165,52.766 87.285 C 52.572 87.405,52.458 87.195,52.513 86.818 C 52.568 86.441,52.773 86.221,52.967 86.328 C 53.161 86.436,53.282 86.639,53.235 86.779 C 53.188 86.920,53.408 87.134,53.723 87.255 C 54.134 87.413,54.297 87.196,54.297 86.488 C 54.297 85.945,54.137 85.600,53.941 85.721 C 53.745 85.842,53.618 85.721,53.659 85.451 C 53.779 84.657,54.308 83.984,54.808 83.990 C 55.101 83.994,55.128 84.103,54.883 84.283 C 54.263 84.738,54.270 85.453,54.895 85.693 C 55.304 85.850,55.469 85.636,55.469 84.949 C 55.469 83.707,55.349 83.373,54.951 83.506 C 54.774 83.565,54.750 83.418,54.898 83.179 C 55.091 82.866,55.285 82.863,55.591 83.169 C 56.417 83.995,57.256 83.654,57.191 82.520 C 57.157 81.929,56.931 81.489,56.689 81.543 C 56.040 81.687,56.148 81.458,57.122 80.627 C 57.820 80.032,57.889 80.019,57.469 80.562 C 57.019 81.143,57.039 81.277,57.606 81.495 C 58.139 81.700,58.167 81.821,57.748 82.115 C 57.334 82.406,57.347 82.448,57.813 82.319 C 58.212 82.208,58.399 81.644,58.400 80.549 C 58.401 79.665,58.633 78.714,58.916 78.436 C 59.199 78.157,59.390 78.105,59.341 78.320 C 59.192 78.969,59.822 80.089,60.204 79.854 C 60.399 79.733,60.458 79.470,60.335 79.270 C 60.211 79.070,60.368 78.906,60.683 78.906 C 61.062 78.906,61.186 78.644,61.052 78.129 C 60.937 77.691,60.655 77.463,60.405 77.606 C 60.156 77.748,60.102 77.706,60.281 77.509 C 60.458 77.316,60.809 77.139,61.063 77.115 C 61.316 77.092,61.841 77.045,62.230 77.013 C 62.619 76.980,62.828 76.777,62.695 76.562 C 62.563 76.348,62.684 76.171,62.965 76.169 C 63.514 76.166,64.501 74.397,64.150 74.046 C 64.034 73.930,63.659 74.050,63.317 74.313 C 62.966 74.583,63.030 74.400,63.463 73.893 C 64.164 73.073,64.272 73.052,64.705 73.644 C 65.138 74.236,65.240 74.217,65.890 73.419 C 66.281 72.938,67.085 71.975,67.676 71.279 C 68.817 69.935,69.067 69.295,68.262 69.778 C 67.926 69.980,67.940 69.867,68.306 69.415 C 68.599 69.054,68.974 68.843,69.141 68.945 C 69.307 69.048,69.651 68.881,69.906 68.574 C 70.161 68.266,70.605 68.105,70.892 68.216 C 71.189 68.330,71.523 68.070,71.668 67.614 C 71.808 67.174,72.439 66.508,73.071 66.135 C 73.702 65.762,74.219 65.306,74.219 65.122 C 74.219 64.568,75.171 63.794,75.654 63.955 C 75.902 64.038,76.332 63.481,76.608 62.717 C 76.884 61.953,77.294 61.324,77.520 61.319 C 77.745 61.315,78.369 60.948,78.906 60.504 C 79.443 60.061,79.663 59.811,79.395 59.950 C 79.126 60.089,78.906 60.006,78.906 59.766 C 78.906 59.525,78.746 59.428,78.550 59.549 C 78.354 59.670,78.239 59.461,78.294 59.084 C 78.350 58.707,78.554 58.396,78.748 58.392 C 78.943 58.389,79.365 58.224,79.688 58.025 C 80.183 57.718,80.195 57.759,79.766 58.289 C 79.453 58.676,79.405 59.005,79.642 59.151 C 79.852 59.281,80.136 59.206,80.273 58.984 C 80.411 58.763,80.642 58.640,80.789 58.711 C 80.935 58.783,81.494 58.406,82.031 57.875 C 82.568 57.343,82.807 57.023,82.560 57.163 C 82.314 57.303,82.003 57.131,81.869 56.781 C 81.648 56.206,81.540 56.215,80.754 56.880 C 79.885 57.616,79.884 57.615,80.568 56.803 C 81.197 56.057,82.625 55.605,82.205 56.286 C 81.822 56.905,83.432 56.828,84.124 56.194 C 85.325 55.092,84.308 54.363,82.813 55.254 C 82.458 55.465,82.523 55.265,82.976 54.749 L 83.726 53.894 84.699 54.779 C 85.235 55.266,85.546 55.444,85.391 55.176 C 85.223 54.883,85.330 54.687,85.659 54.687 C 86.675 54.687,87.609 53.277,87.154 52.428 C 86.737 51.648,86.964 51.036,87.537 51.390 C 87.713 51.499,87.764 51.828,87.652 52.121 C 87.539 52.415,87.662 52.788,87.924 52.951 C 88.230 53.139,88.301 53.083,88.123 52.795 C 87.970 52.547,88.031 52.322,88.258 52.295 C 88.486 52.268,88.862 52.224,89.094 52.197 C 89.326 52.170,89.741 51.841,90.016 51.465 C 90.291 51.089,90.716 50.781,90.961 50.781 C 91.206 50.781,91.362 50.572,91.309 50.316 C 91.255 50.060,91.539 49.780,91.941 49.693 C 92.463 49.579,92.586 49.684,92.372 50.060 C 92.128 50.488,92.172 50.494,92.609 50.088 C 93.040 49.687,93.051 49.440,92.663 48.818 C 92.083 47.890,92.295 47.820,93.136 48.661 C 93.868 49.393,94.071 48.201,93.361 47.342 C 93.147 47.084,93.246 47.110,93.581 47.401 C 94.306 48.029,95.955 47.800,96.251 47.030 C 96.366 46.730,96.308 46.484,96.123 46.484 C 95.938 46.484,95.697 46.250,95.587 45.964 C 95.477 45.677,95.624 45.443,95.914 45.443 C 96.204 45.443,96.407 45.633,96.365 45.866 C 96.323 46.099,96.550 46.289,96.870 46.289 C 97.189 46.289,97.513 45.961,97.591 45.559 C 97.673 45.133,97.564 44.933,97.330 45.077 C 97.110 45.214,96.840 45.182,96.732 45.006 C 96.624 44.831,96.944 44.688,97.444 44.688 C 98.079 44.688,98.287 44.859,98.135 45.256 C 97.868 45.953,99.944 44.818,101.426 43.457 C 101.953 42.974,102.644 42.578,102.962 42.578 C 103.280 42.578,103.641 42.314,103.765 41.992 C 103.889 41.670,104.225 41.406,104.512 41.406 C 104.825 41.406,104.972 41.091,104.881 40.615 C 104.783 40.105,104.884 39.919,105.165 40.093 C 105.458 40.274,105.514 40.116,105.335 39.615 C 105.133 39.050,105.268 39.106,105.887 39.844 C 106.690 40.799,106.703 40.801,106.515 39.942 C 106.292 38.921,106.924 38.329,107.271 39.233 C 107.400 39.569,107.692 39.844,107.919 39.844 C 108.147 39.844,108.217 39.728,108.075 39.586 C 107.933 39.444,108.212 39.126,108.694 38.879 C 109.201 38.620,109.541 38.112,109.502 37.672 C 109.436 36.950,109.457 36.947,109.950 37.618 C 110.254 38.031,110.528 38.144,110.612 37.890 C 110.691 37.652,111.105 37.400,111.531 37.329 C 111.956 37.259,112.271 37.036,112.230 36.834 C 112.189 36.632,112.541 36.479,113.011 36.495 C 113.672 36.517,113.859 36.310,113.830 35.586 C 113.795 34.707,113.825 34.694,114.318 35.368 C 114.640 35.809,114.844 35.891,114.844 35.580 C 114.844 35.270,115.093 35.168,115.485 35.319 C 116.025 35.526,116.047 35.469,115.625 34.960 C 115.349 34.628,115.236 34.243,115.374 34.105 C 115.512 33.967,115.625 34.058,115.625 34.307 C 115.625 34.772,116.453 34.725,117.686 34.193 C 118.265 33.943,118.297 33.788,117.881 33.255 C 117.457 32.712,117.470 32.682,117.969 33.052 C 118.665 33.569,119.922 33.609,119.922 33.115 C 119.922 32.923,120.099 32.876,120.315 33.010 C 120.532 33.143,120.814 32.979,120.942 32.644 C 121.071 32.310,121.333 32.133,121.525 32.252 C 121.718 32.371,121.875 32.288,121.875 32.068 C 121.875 31.848,122.248 31.469,122.703 31.225 C 123.374 30.866,123.471 30.882,123.214 31.309 C 122.956 31.737,123.009 31.745,123.496 31.351 C 123.826 31.084,124.211 30.982,124.352 31.123 C 124.494 31.265,124.609 31.165,124.609 30.901 C 124.609 30.638,124.782 30.529,124.992 30.659 C 125.454 30.945,127.046 30.154,126.803 29.760 C 126.708 29.607,127.150 29.460,127.786 29.434 C 128.421 29.408,129.315 29.059,129.772 28.658 C 130.229 28.258,130.464 28.167,130.293 28.457 C 130.042 28.885,130.142 28.900,130.823 28.535 C 131.285 28.288,131.565 27.928,131.446 27.735 C 131.327 27.542,131.621 27.460,132.100 27.552 C 132.579 27.645,133.081 27.541,133.216 27.323 C 133.351 27.104,133.975 26.839,134.602 26.733 C 136.416 26.426,136.792 26.216,136.473 25.686 C 136.249 25.313,136.328 25.317,136.804 25.703 C 137.287 26.094,137.497 26.102,137.721 25.740 C 137.917 25.422,137.846 25.372,137.500 25.586 C 137.203 25.770,137.084 25.748,137.216 25.534 C 137.342 25.331,138.072 25.186,138.839 25.212 C 139.607 25.237,140.234 25.135,140.234 24.984 C 140.234 24.834,141.022 24.490,141.985 24.221 C 143.072 23.916,143.643 23.564,143.490 23.291 C 143.328 23.000,143.414 23.008,143.743 23.312 C 144.206 23.740,145.321 23.429,146.094 22.656 C 146.201 22.549,146.729 22.402,147.266 22.330 C 147.803 22.257,148.395 22.051,148.583 21.872 C 148.770 21.692,149.196 21.650,149.529 21.778 C 149.977 21.950,150.069 21.838,149.881 21.348 C 149.674 20.809,149.757 20.755,150.323 21.057 C 150.723 21.271,151.251 21.286,151.565 21.092 C 151.865 20.907,152.239 20.834,152.396 20.931 C 152.552 21.027,152.793 20.925,152.930 20.703 C 153.067 20.481,153.343 20.401,153.543 20.524 C 153.743 20.648,153.909 20.431,153.912 20.043 C 153.916 19.647,154.044 19.508,154.205 19.727 C 154.539 20.181,155.674 20.237,156.092 19.819 C 156.251 19.661,156.801 19.531,157.315 19.531 C 157.958 19.531,158.158 19.379,157.956 19.043 C 157.726 18.660,157.787 18.655,158.239 19.021 C 158.612 19.322,159.017 19.359,159.388 19.124 C 159.703 18.925,160.400 18.758,160.938 18.754 C 161.475 18.749,162.403 18.490,163.001 18.178 C 163.629 17.850,163.973 17.797,163.816 18.052 C 163.635 18.344,163.772 18.404,164.226 18.230 C 164.601 18.087,165.255 17.969,165.680 17.969 C 166.145 17.969,166.346 17.797,166.185 17.536 C 166.003 17.242,166.198 17.193,166.797 17.383 C 167.406 17.576,167.592 17.526,167.403 17.220 C 167.067 16.677,168.044 16.829,168.451 17.383 C 168.632 17.629,168.740 17.602,168.744 17.311 C 168.748 17.031,169.138 16.919,169.735 17.027 C 170.277 17.125,171.024 17.045,171.395 16.848 C 172.148 16.450,174.155 16.145,180.859 15.412 C 181.611 15.330,185.215 15.145,188.867 15.001 C 192.520 14.857,195.565 14.691,195.634 14.633 C 195.827 14.470,208.112 14.803,210.547 15.037 M187.695 47.293 C 148.537 50.926,111.478 70.318,83.612 101.758 C 76.924 109.304,77.995 111.020,88.330 109.313 L 91.068 108.861 88.991 107.849 C 85.721 106.254,86.167 104.520,91.215 99.219 C 92.544 97.822,94.716 95.186,96.041 93.359 C 108.161 76.656,136.169 60.055,163.867 53.159 C 207.212 42.367,252.806 50.652,287.533 75.631 C 291.242 78.300,291.893 79.278,290.785 80.521 L 290.039 81.357 291.309 80.707 C 293.540 79.566,293.098 78.553,288.965 75.344 C 263.412 55.502,222.216 44.091,187.695 47.293 M86.203 53.623 C 86.307 54.407,86.277 54.423,85.901 53.787 C 85.551 53.195,85.379 53.163,84.832 53.585 C 84.368 53.943,84.396 53.835,84.926 53.214 C 85.754 52.243,86.032 52.333,86.203 53.623 M301.172 57.541 C 301.172 57.644,302.767 58.987,304.716 60.527 C 336.500 85.633,363.221 129.181,368.605 164.648 C 368.768 165.723,368.963 166.318,369.039 165.972 C 369.331 164.641,366.252 151.220,364.032 144.141 C 355.225 116.064,339.168 90.642,317.871 71.057 C 311.971 65.633,301.172 56.891,301.172 57.541 M76.172 61.523 C 75.818 61.950,75.809 62.109,76.139 62.109 C 76.462 62.109,76.449 62.263,76.095 62.643 C 75.674 63.093,75.524 63.078,75.137 62.550 C 74.650 61.884,74.825 61.174,75.391 61.523 C 75.576 61.638,75.838 61.553,75.973 61.334 C 76.108 61.116,76.317 60.938,76.438 60.938 C 76.559 60.938,76.439 61.201,76.172 61.523 M74.219 62.622 C 74.219 62.689,73.647 63.261,72.949 63.892 L 71.680 65.039 72.827 63.770 C 73.896 62.586,74.219 62.320,74.219 62.622 M245.606 116.602 C 244.615 121.969,242.063 123.647,233.699 124.431 C 222.356 125.495,222.641 124.208,229.665 142.663 C 231.195 146.684,235.797 159.517,239.890 171.179 C 256.184 217.596,262.064 234.582,268.988 255.244 C 277.092 279.425,277.202 279.541,280.067 266.818 C 281.563 260.177,281.535 259.828,279.887 264.552 C 276.902 273.106,276.655 273.009,272.736 261.719 C 271.654 258.604,269.629 253.066,268.235 249.414 C 266.841 245.762,262.182 232.754,257.881 220.508 C 253.580 208.262,248.888 194.902,247.453 190.820 C 233.410 150.870,230.132 140.858,229.055 134.618 C 228.724 132.700,228.116 130.502,227.703 129.732 C 226.353 127.211,226.628 127.040,233.420 126.156 C 242.927 124.920,246.575 122.098,246.026 116.406 L 245.895 115.039 245.606 116.602 M132.106 118.677 C 130.811 122.943,128.251 124.253,119.727 125.013 C 109.320 125.940,109.513 125.103,115.761 142.212 C 117.992 148.321,123.817 165.186,128.707 179.688 C 133.596 194.189,139.964 212.822,142.859 221.094 C 145.753 229.365,151.022 244.834,154.567 255.469 C 163.189 281.335,163.116 281.225,165.605 272.243 C 166.522 268.936,166.436 268.291,165.439 270.987 C 163.202 277.036,162.824 276.605,158.012 262.500 C 156.435 257.881,154.322 251.816,153.315 249.023 C 152.308 246.230,149.051 236.738,146.078 227.930 C 143.105 219.121,137.304 202.158,133.188 190.234 C 121.707 156.980,116.955 142.671,115.848 138.030 C 115.291 135.697,114.444 132.588,113.964 131.119 C 112.748 127.400,112.331 127.598,124.023 126.355 C 129.632 125.758,133.145 122.523,132.744 118.324 L 132.617 116.992 132.106 118.677 M155.116 124.778 C 155.209 124.870,157.511 125.478,160.232 126.128 C 168.140 128.018,169.822 129.111,172.888 134.347 C 174.935 137.844,174.947 137.788,173.412 132.062 C 172.074 127.068,171.432 125.599,170.334 125.012 C 169.625 124.632,154.742 124.403,155.116 124.778 M335.909 135.209 C 335.664 135.667,335.308 139.315,335.118 143.314 C 334.583 154.612,333.575 161.822,331.209 171.289 C 329.836 176.782,301.416 262.205,293.390 284.961 C 290.359 293.555,286.713 303.906,285.288 307.964 C 281.806 317.879,281.866 319.673,285.618 317.739 C 289.231 315.876,301.470 304.728,308.735 296.682 C 311.757 293.336,311.653 293.412,306.613 298.242 C 292.690 311.584,287.929 310.926,292.397 296.278 C 292.928 294.540,293.800 291.046,294.336 288.514 C 295.541 282.823,296.834 278.310,300.836 265.820 C 305.884 250.067,323.659 196.654,326.972 187.279 C 330.587 177.052,332.694 169.905,334.580 161.472 C 338.027 146.062,338.250 145.725,341.029 151.739 C 343.911 157.977,346.500 167.830,347.842 177.674 C 348.147 179.903,348.373 180.800,348.397 179.867 C 348.742 166.347,338.619 130.146,335.909 135.209 M60.409 141.089 C 59.196 142.982,55.070 158.784,53.313 168.258 C 48.871 192.223,50.353 216.094,57.695 238.867 C 59.366 244.051,62.126 251.286,62.347 251.064 C 62.435 250.977,61.820 249.075,60.980 246.839 C 51.020 220.310,49.522 184.016,57.364 159.180 C 60.655 148.756,62.953 147.526,66.712 154.176 C 68.185 156.782,68.151 156.498,66.149 149.414 C 63.894 141.435,61.973 138.648,60.409 141.089 M348.555 183.594 C 348.555 184.775,348.628 185.259,348.717 184.668 C 348.807 184.077,348.807 183.110,348.717 182.520 C 348.628 181.929,348.555 182.412,348.555 183.594 M348.956 193.164 C 348.958 194.668,349.029 195.235,349.113 194.425 C 349.198 193.614,349.196 192.384,349.110 191.691 C 349.024 190.997,348.955 191.660,348.956 193.164 M202.132 215.400 C 201.791 215.921,199.932 221.590,198.001 227.998 C 196.070 234.406,191.252 249.394,187.294 261.306 C 183.336 273.217,180.163 283.028,180.243 283.107 C 180.322 283.187,181.222 280.736,182.241 277.661 C 196.598 234.361,201.031 223.730,204.110 225.221 C 207.699 226.959,210.064 232.387,227.333 278.516 C 239.121 310.003,243.488 321.486,243.621 321.352 C 243.816 321.158,240.326 311.479,234.302 295.508 C 216.826 249.174,213.662 240.595,209.809 229.089 C 204.708 213.858,203.986 212.571,202.132 215.400 M62.528 251.758 C 62.528 251.973,62.779 252.588,63.086 253.125 C 63.393 253.662,63.644 253.926,63.644 253.711 C 63.644 253.496,63.393 252.881,63.086 252.344 C 62.779 251.807,62.528 251.543,62.528 251.758 M63.705 254.492 C 63.705 254.707,64.041 255.498,64.453 256.250 C 64.865 257.002,65.202 257.441,65.202 257.227 C 65.202 257.012,64.865 256.221,64.453 255.469 C 64.041 254.717,63.705 254.277,63.705 254.492 M48.954 274.368 C 65.268 305.864,92.582 332.225,125.354 348.103 C 130.580 350.635,139.486 354.394,139.716 354.164 C 139.794 354.087,138.228 353.357,136.237 352.544 C 102.073 338.583,68.134 308.128,49.675 274.867 C 46.582 269.293,46.183 269.017,48.954 274.368 M92.578 297.461 C 93.745 298.643,94.788 299.609,94.895 299.609 C 95.003 299.609,94.136 298.643,92.969 297.461 C 91.802 296.279,90.759 295.313,90.652 295.313 C 90.544 295.313,91.411 296.279,92.578 297.461 M173.816 301.440 C 171.442 308.676,166.415 322.448,163.811 328.850 C 160.456 337.099,160.333 338.085,162.529 339.159 C 164.073 339.915,169.501 340.822,174.609 341.178 L 177.930 341.409 175.195 340.697 C 169.359 339.179,168.152 338.275,166.660 334.304 C 165.089 330.119,165.629 327.355,171.491 309.594 C 173.404 303.799,174.906 298.995,174.829 298.918 C 174.753 298.841,174.297 299.976,173.816 301.440 M374.851 299.825 C 374.723 300.158,374.777 300.333,374.971 300.213 C 375.165 300.093,375.413 300.216,375.522 300.486 C 375.631 300.756,375.733 300.581,375.750 300.098 C 375.786 299.095,375.199 298.917,374.851 299.825 M360.352 319.531 C 360.205 319.993,360.173 320.459,360.280 320.567 C 360.388 320.674,360.596 320.384,360.742 319.922 C 360.889 319.460,360.921 318.994,360.814 318.886 C 360.706 318.779,360.498 319.069,360.352 319.531 " stroke="none" fill="#5c6068" fill-rule="evenodd"></path></g></svg>