<?xml version="1.0" encoding="utf-8"?>
<!-- Generator: Adobe Illustrator 23.0.6, SVG Export Plug-In . SVG Version: 6.00 Build 0)  -->
<svg version="1.1" id="Layer_1" xmlns="http://www.w3.org/2000/svg" xmlns:xlink="http://www.w3.org/1999/xlink" x="0px" y="0px"
	 viewBox="0 0 299 111.2" style="enable-background:new 0 0 299 111.2;" xml:space="preserve">
<style type="text/css">
	.st0{fill:#FFFFFF;}
</style>
<g>
	<g>
		<path class="st0" d="M185.7,94h12.6v1.6h-14.5V69h1.9V94z"/>
		<path class="st0" d="M230.6,95.6h-1.5c-0.2,0-0.3,0-0.4-0.1c-0.1-0.1-0.2-0.2-0.3-0.4l-3.1-7.7h-13.1l-3.1,7.7
			c-0.1,0.1-0.1,0.3-0.3,0.4c-0.1,0.1-0.3,0.1-0.5,0.1h-1.5L217.8,69h1.9L230.6,95.6z M212.8,85.9h11.9l-5.4-13.5
			c-0.1-0.2-0.2-0.5-0.3-0.7c-0.1-0.3-0.2-0.6-0.3-0.9c-0.1,0.3-0.2,0.6-0.3,0.9c-0.1,0.3-0.2,0.5-0.3,0.7L212.8,85.9z"/>
		<path class="st0" d="M242.3,95.6V69h7.7c1.5,0,2.8,0.1,3.9,0.5c1.1,0.3,2,0.7,2.8,1.3c0.7,0.6,1.3,1.3,1.6,2.1
			c0.4,0.8,0.5,1.8,0.5,2.9c0,0.7-0.1,1.4-0.4,2c-0.2,0.7-0.6,1.3-1.1,1.8c-0.5,0.6-1,1-1.7,1.4c-0.7,0.4-1.4,0.7-2.3,0.9
			c2.1,0.3,3.7,1,4.8,2.1c1.1,1.1,1.7,2.5,1.7,4.3c0,1.1-0.2,2.1-0.6,3c-0.4,0.9-1,1.7-1.8,2.3c-0.8,0.6-1.7,1.1-2.8,1.4
			c-1.1,0.3-2.4,0.5-3.8,0.5H242.3z M244.3,81.4h5.8c1.2,0,2.3-0.2,3.2-0.5c0.9-0.3,1.6-0.7,2.1-1.2c0.6-0.5,1-1.1,1.2-1.7
			c0.3-0.7,0.4-1.3,0.4-2c0-1.8-0.6-3.2-1.7-4.1c-1.1-0.9-2.9-1.4-5.3-1.4h-5.7V81.4z M244.3,82.8V94h6.7c2.3,0,4.1-0.5,5.3-1.5
			c1.2-1,1.8-2.4,1.8-4.3c0-0.8-0.2-1.6-0.5-2.3c-0.3-0.7-0.8-1.2-1.4-1.7c-0.6-0.5-1.3-0.8-2.2-1.1c-0.9-0.3-1.9-0.4-3-0.4H244.3z"
			/>
		<path class="st0" d="M286.9,72.2c-0.1,0.2-0.3,0.3-0.5,0.3c-0.2,0-0.4-0.1-0.6-0.3c-0.3-0.2-0.6-0.5-1-0.8c-0.4-0.3-1-0.5-1.7-0.8
			c-0.7-0.2-1.5-0.4-2.4-0.4c-1,0-1.8,0.1-2.6,0.4c-0.7,0.3-1.4,0.7-1.8,1.1c-0.5,0.5-0.9,1-1.1,1.7c-0.3,0.6-0.4,1.3-0.4,2
			c0,0.9,0.2,1.6,0.6,2.2c0.4,0.6,0.9,1.1,1.5,1.5c0.6,0.4,1.3,0.8,2.1,1c0.8,0.3,1.6,0.6,2.5,0.8c0.8,0.3,1.7,0.6,2.5,0.9
			c0.8,0.3,1.5,0.7,2.1,1.2c0.6,0.5,1.1,1.1,1.5,1.9c0.4,0.7,0.6,1.6,0.6,2.7c0,1.1-0.2,2.2-0.6,3.2c-0.4,1-0.9,1.8-1.7,2.6
			c-0.7,0.7-1.6,1.3-2.7,1.7c-1.1,0.4-2.3,0.6-3.6,0.6c-1.8,0-3.3-0.3-4.5-0.9c-1.3-0.6-2.4-1.5-3.3-2.5l0.5-0.8
			c0.1-0.2,0.3-0.3,0.5-0.3c0.1,0,0.3,0.1,0.4,0.2c0.2,0.1,0.4,0.3,0.6,0.6c0.3,0.2,0.6,0.5,0.9,0.7c0.4,0.3,0.8,0.5,1.2,0.7
			c0.5,0.2,1,0.4,1.6,0.6c0.6,0.1,1.3,0.2,2.1,0.2c1.1,0,2-0.2,2.8-0.5c0.8-0.3,1.5-0.8,2.1-1.3c0.6-0.6,1-1.2,1.3-2
			c0.3-0.8,0.5-1.6,0.5-2.4c0-0.9-0.2-1.7-0.6-2.3c-0.4-0.6-0.9-1.1-1.5-1.5c-0.6-0.4-1.3-0.7-2.1-1c-0.8-0.3-1.6-0.5-2.5-0.8
			c-0.8-0.3-1.7-0.6-2.5-0.9c-0.8-0.3-1.5-0.7-2.1-1.3c-0.6-0.5-1.1-1.1-1.5-1.9c-0.4-0.8-0.6-1.7-0.6-2.9c0-0.9,0.2-1.7,0.5-2.6
			c0.3-0.8,0.8-1.6,1.5-2.2c0.7-0.6,1.5-1.1,2.4-1.5c1-0.4,2.1-0.6,3.3-0.6c1.4,0,2.6,0.2,3.7,0.7c1.1,0.4,2.1,1.1,3,2L286.9,72.2z"
			/>
	</g>
	<g>
		<path class="st0" d="M22.4,53.9L18.8,61h-7.8l21.2-42.3l14.1,28.3h-7.9l-6.2-12.4l-6.2,12.4L22.4,53.9z M53.3,61h-7.9l-3.5-7h7.8
			L53.3,61z"/>
		<path class="st0" d="M168.1,39.8c0,2.9-0.5,5.6-1.6,8.2c-1.2,2.6-2.6,4.8-4.6,6.8c-1.9,1.9-4.2,3.4-6.8,4.6
			c-2.5,1.1-5.3,1.7-8.2,1.7h-14.1l7-7.1h7c2,0,3.8-0.4,5.5-1.1c1.7-0.7,3.2-1.7,4.5-3.1c1.3-1.3,2.3-2.8,3-4.5
			c0.7-1.7,1.1-3.5,1.1-5.5c0-1.9-0.4-3.7-1.1-5.5c-0.7-1.7-1.7-3.2-3.1-4.5c-1.3-1.3-2.8-2.3-4.5-3.1c-1.7-0.7-3.5-1.1-5.5-1.1h-7
			l-7-7.1h14.1c2.9,0,5.6,0.6,8.2,1.7c2.5,1.1,4.8,2.6,6.7,4.6c2,2,3.4,4.2,4.6,6.8C167.5,34.2,168.1,36.9,168.1,39.8z"/>
		<path class="st0" d="M196.8,53.9l-3.6,7.1h-7.8l21.2-42.3l14.1,28.3h-7.9l-6.2-12.4l-6.2,12.4L196.8,53.9z M227.7,61h-7.9l-3.5-7
			h7.8L227.7,61z"/>
		<path class="st0" d="M264.7,34.1l-4.4,5.7l-16.6-21.2h9L264.7,34.1z M260.3,39.8l4.4,5.7l-12,15.5h-9L260.3,39.8z M269.2,39.8
			l-4.5-5.7l12.1-15.5h8.9L269.2,39.8z M269.2,39.8L285.7,61h-8.9l-12.1-15.5L269.2,39.8z"/>
		<g>
			<path class="st0" d="M97.7,50.8c-2.1,2.1-4.6,3.1-7.5,3.1c-2.9,0-5.5-1-7.5-3.1c-2-2-3-4.5-3-7.4V18.7h-7v24.7
				c0,4.8,1.7,9.1,5.1,12.5S85.4,61,90.2,61c4.8,0,9.1-1.7,12.5-5.1c3.5-3.4,5.2-7.6,5.2-12.5h-7C100.8,46.2,99.7,48.7,97.7,50.8z"
				/>
			<rect x="101.1" y="18.7" class="st0" width="6.8" height="17.6"/>
		</g>
	</g>
</g>
</svg>
