<?xml version="1.0"?>
<svg version="1.1" xmlns="http://www.w3.org/2000/svg" width="300" height="40" style=""><path fill="#eb0e24" d="M18.5,32.88l0-15.12l-2.38-0.56l0-1.54l5.18-0.14l3.22,0c3.5,0,6.02,1.54,6.02,4.9c0,2.52-1.288,3.948-3.64,4.536c2.94,0.672,4.34,2.324,4.34,4.564c0,3.92-2.52,5.6-7.14,5.6l-7.98,0l0-1.68z M21.3,23.92l2.1,0c2.52,0,4.2-0.98,4.2-3.22c0-1.96-1.4-2.94-3.22-2.94l-3.08,0l0,6.16z M21.3,32.88l2.94,0c2.66,0,4.06-1.12,4.06-3.22c0-2.8-1.82-3.64-4.9-3.64l-2.1,0l0,6.86z M42.8208,20c4.2,0,6.58,2.94,6.58,7.42c0,4.76-2.8,7.98-7,7.98s-6.72-2.52-6.72-7.56c0-4.76,2.94-7.84,7.14-7.84z M42.6808,22.24c-2.8,0-4.06,1.82-4.06,5.46c0,3.36,1.12,5.46,3.92,5.46s3.92-1.96,3.92-5.6c0-3.08-0.98-5.32-3.78-5.32z M60.0016,16.164l3.976-3.024l1.12,1.26l-4.2,3.78l-1.68,0.14l-4.2-3.92l1.12-1.26z M56.8376,33.02l5.712,0l0.392-2.24l1.96,0l0,4.34l-11.2,0l0-2.1l8.176-10.64l-5.264,0l-0.392,2.1l-1.96,0l0-4.2l10.78,0l0,2.1z M70.8824,15.66c0-1.26,0.84-1.96,1.82-1.96c1.12,0,1.82,0.56,1.82,1.96c0,1.26-0.98,1.96-1.82,1.96c-1.12,0-1.82-0.7-1.82-1.96z M76.3424,33.58l0,1.54l-7.28,0l0-1.54l2.38-0.7l0-10.36l-2.38-0.56l0-1.54l5.18-0.14l0,12.6z M95.7632,33.44l0,1.54l-4.76,0.14l-0.224-1.596c-0.812,0.812-2.268,1.876-4.396,1.876c-4.06,0-5.88-2.94-5.88-7.28c0-4.76,2.38-8.12,7.42-8.12c1.036,0,1.932,0.196,2.66,0.448l0-4.648l-2.38-0.56l0-1.54l5.18-0.14l0,19.32z M90.5832,31.06l0-8.26s-0.98-0.56-2.94-0.56c-3.248,0-4.2,2.52-4.2,5.6s0.98,5.32,3.5,5.32c2.38,0,3.64-2.1,3.64-2.1z M100.624,24.62l-0.14-3.5s3.08-1.12,5.46-1.12c3.248,0,5.18,1.12,5.18,4.34l0,8.54l2.24,0.56l0,1.54l-4.34,0.14l-0.588-1.96c-0.952,0.952-2.632,2.24-4.592,2.24c-2.66,0-4.2-1.54-4.2-4.2c0-3.22,2.52-4.34,6.44-4.34l2.24,0l0-2.24c0-1.68-0.98-2.52-2.66-2.52s-2.828,0.42-2.828,0.42l-0.392,2.1l-1.82,0z M108.324,28.68l-1.96,0c-2.8,0-3.864,0.7-3.864,2.38c0,1.26,0.784,2.1,2.044,2.1c2.1,0,3.78-2.24,3.78-2.24l0-2.24z M121.8648,20.28l0.252,2.044c0.7-0.784,2.324-2.324,4.228-2.324c1.4,0,2.52,0.42,2.52,0.42l-0.14,4.06l-1.82,0l-0.42-2.1c-2.1,0-3.444,1.372-4.06,2.184l0,8.316l2.8,0.7l0,1.54l-7.98,0l0-1.54l2.38-0.7l0-10.36l-2.38-0.56l0-1.54z M147.5464,14.54l-1.064-1.484l5.096-4.06l1.428,2.044z M154.5464,21.4l-0.756-3.22s-1.484-0.56-3.584-0.56c-3.78,0-5.88,2.8-5.88,7.98c0,5.04,2.52,7.28,6.02,7.28c2.94,0,5.6-2.24,5.6-2.24l1.12,1.82s-2.8,2.94-7,2.94c-5.6,0-8.96-3.36-8.96-9.66c0-6.44,3.64-10.5,9.38-10.5c3.08,0,6.3,1.4,6.3,1.4l-0.14,4.76l-2.1,0z M177.4672,33.44l0,1.54l-4.62,0.14l-0.28-1.96c-0.672,0.588-2.884,2.24-5.18,2.24c-3.08,0-4.48-1.932-4.48-5.012l0-7.868l-2.38-0.56l0-1.54l5.18-0.14l0,9.828c0,1.96,0.7,2.912,2.52,2.912c2.38,0,4.06-2.212,4.06-2.212l0-8.288l-2.38-0.56l0-1.54l5.18-0.14l0,12.6z M196.608,33.44l0,1.54l-4.76,0.14l-0.224-1.596c-0.812,0.812-2.268,1.876-4.396,1.876c-4.06,0-5.88-2.94-5.88-7.28c0-4.76,2.38-8.12,7.42-8.12c1.036,0,1.932,0.196,2.66,0.448l0-4.648l-2.38-0.56l0-1.54l5.18-0.14l0,19.32z M191.428,31.06l0-8.26s-0.98-0.56-2.94-0.56c-3.248,0-4.2,2.52-4.2,5.6s0.98,5.32,3.5,5.32c2.38,0,3.64-2.1,3.64-2.1z M202.1688,15.66c0-1.26,0.84-1.96,1.82-1.96c1.12,0,1.82,0.56,1.82,1.96c0,1.26-0.98,1.96-1.82,1.96c-1.12,0-1.82-0.7-1.82-1.96z M207.6288,33.58l0,1.54l-7.28,0l0-1.54l2.38-0.7l0-10.36l-2.38-0.56l0-1.54l5.18-0.14l0,12.6z M216.2696,20.28l0.252,1.988c0.672-0.588,2.884-2.268,5.208-2.268c3.08,0,4.48,1.96,4.48,5.04l0,7.84l2.1,0.7l0,1.54l-6.72,0l0-1.54l1.82-0.7l0-7.56c0-1.96-0.7-2.94-2.52-2.94c-2.38,0-4.06,2.24-4.06,2.24l0,8.26l1.82,0.7l0,1.54l-7,0l0-1.54l2.38-0.7l0-10.36l-2.38-0.56l0-1.54z M233.3104,24.62l-0.14-3.5s3.08-1.12,5.46-1.12c3.248,0,5.18,1.12,5.18,4.34l0,8.54l2.24,0.56l0,1.54l-4.34,0.14l-0.588-1.96c-0.952,0.952-2.632,2.24-4.592,2.24c-2.66,0-4.2-1.54-4.2-4.2c0-3.22,2.52-4.34,6.44-4.34l2.24,0l0-2.24c0-1.68-0.98-2.52-2.66-2.52s-2.828,0.42-2.828,0.42l-0.392,2.1l-1.82,0z M241.0104,28.68l-1.96,0c-2.8,0-3.864,0.7-3.864,2.38c0,1.26,0.784,2.1,2.044,2.1c2.1,0,3.78-2.24,3.78-2.24l0-2.24z"/><path fill="#" d=""/></svg>
